<svg width="152" height="39" viewBox="0 0 152 39" fill="none" xmlns="http://www.w3.org/2000/svg">
<path fill-rule="evenodd" clip-rule="evenodd" d="M23.024 16.8501H25.741C28.549 16.8501 30.066 20.1421 28.237 22.2751L25.577 25.3751C25.8651 27.2137 26.836 28.876 28.296 30.0301C29.7574 31.1848 31.6 31.7468 33.457 31.6041C35.3141 31.4614 37.0492 30.6245 38.317 29.2601C39.5838 27.8962 40.2891 26.1045 40.292 24.2431C40.2918 23.9193 40.3554 23.5986 40.4792 23.2994C40.6031 23.0002 40.7848 22.7284 41.0138 22.4995C41.2429 22.2706 41.5149 22.0892 41.8142 21.9655C42.1135 21.8419 42.4342 21.7786 42.758 21.7791C43.4117 21.7794 44.0386 22.0389 44.5011 22.5009C44.9636 22.9628 45.224 23.5894 45.225 24.2431C45.2248 26.829 44.4103 29.3492 42.897 31.4461C41.764 33.0129 40.2789 34.2917 38.5612 35.1796C36.8436 36.0674 34.9414 36.5395 33.008 36.5578C31.0745 36.5761 29.1638 36.1401 27.4297 35.2849C25.6956 34.4297 24.1865 33.1792 23.024 31.6341C21.8616 33.1792 20.3525 34.4297 18.6184 35.2849C16.8842 36.1401 14.9735 36.5761 13.0401 36.5578C11.1066 36.5395 9.20446 36.0674 7.48682 35.1796C5.76919 34.2917 4.28405 33.0129 3.15102 31.4461C1.63737 29.3493 0.822497 26.8291 0.822022 24.2431C0.821759 23.9192 0.885411 23.5984 1.00933 23.2992C1.13325 22.9999 1.31501 22.728 1.54418 22.4991C1.77336 22.2702 2.04545 22.0888 2.34486 21.9653C2.64427 21.8417 2.96512 21.7784 3.28902 21.7791C3.94271 21.7794 4.56959 22.0389 5.0321 22.5009C5.49461 22.9628 5.75496 23.5894 5.75602 24.2431C5.75325 26.1075 6.45555 27.9039 7.72202 29.2721C8.66766 30.2935 9.88206 31.0276 11.2259 31.3903C12.5698 31.753 13.9886 31.7295 15.3198 31.3226C16.6509 30.9156 17.8403 30.1417 18.7516 29.0895C19.6629 28.0374 20.2592 26.7497 20.472 25.3741L17.81 22.2741C15.982 20.1421 17.498 16.8511 20.31 16.8511H23.024V16.8501Z" fill="#9C9C9C"/>
<path d="M34.535 10.2801C35.1826 10.2806 35.8239 10.1535 36.4224 9.90614C37.0209 9.65874 37.5647 9.29587 38.0229 8.83823C38.4811 8.3806 38.8447 7.83718 39.0928 7.23901C39.3409 6.64085 39.4687 5.99966 39.469 5.35207C39.4687 4.70449 39.3409 4.0633 39.0928 3.46513C38.8447 2.86697 38.4811 2.32355 38.0229 1.86592C37.5647 1.40828 37.0209 1.0454 36.4224 0.798008C35.8239 0.550613 35.1826 0.423548 34.535 0.424074C33.8875 0.42368 33.2463 0.550841 32.6479 0.798295C32.0496 1.04575 31.5058 1.40865 31.0477 1.86627C30.5896 2.32389 30.2262 2.86727 29.9781 3.46537C29.7301 4.06347 29.6023 4.70457 29.602 5.35207C29.6023 5.99958 29.7301 6.64068 29.9781 7.23878C30.2262 7.83688 30.5896 8.38026 31.0477 8.83788C31.5058 9.2955 32.0496 9.6584 32.6479 9.90585C33.2463 10.1533 33.8875 10.2805 34.535 10.2801ZM11.512 10.2801C12.1595 10.2805 12.8007 10.1533 13.3991 9.90585C13.9974 9.6584 14.5412 9.2955 14.9993 8.83788C15.4574 8.38026 15.8208 7.83688 16.0689 7.23878C16.3169 6.64068 16.4447 5.99958 16.445 5.35207C16.4447 4.70457 16.3169 4.06347 16.0689 3.46537C15.8208 2.86727 15.4574 2.32389 14.9993 1.86627C14.5412 1.40865 13.9974 1.04575 13.3991 0.798295C12.8007 0.550841 12.1595 0.42368 11.512 0.424074C10.8644 0.423548 10.2231 0.550613 9.62461 0.798008C9.02614 1.0454 8.48228 1.40828 8.02409 1.86592C7.5659 2.32355 7.20236 2.86697 6.95423 3.46513C6.70611 4.0633 6.57827 4.70449 6.578 5.35207C6.57827 5.99966 6.70611 6.64085 6.95423 7.23901C7.20236 7.83718 7.5659 8.3806 8.02409 8.83823C8.48228 9.29587 9.02614 9.65874 9.62461 9.90614C10.2231 10.1535 10.8644 10.2806 11.512 10.2801ZM79.445 1.62807C80.205 1.62807 80.829 1.84507 81.317 2.27907C81.805 2.71307 82.049 3.28307 82.049 3.98907V28.3241C82.049 29.0571 81.819 29.6401 81.357 30.0741C80.897 30.5081 80.286 30.7251 79.527 30.7251C78.767 30.7251 78.157 30.5081 77.695 30.0751C77.234 29.6401 77.003 29.0571 77.003 28.3251V27.3071C76.406 28.4191 75.538 29.2871 74.398 29.9111C73.286 30.5351 72.011 30.8471 70.573 30.8471C68.863 30.8471 67.331 30.4131 65.975 29.5451C64.645 28.6771 63.601 27.4561 62.841 25.8821C62.108 24.2821 61.742 22.4511 61.742 20.3891C61.742 18.3271 62.108 16.5231 62.841 14.9761C63.601 13.4301 64.645 12.2361 65.975 11.3951C67.304 10.5541 68.837 10.1331 70.573 10.1331C72.011 10.1331 73.286 10.4321 74.399 11.0291C75.4835 11.5989 76.3752 12.4767 76.962 13.5521V3.90707C76.962 3.22907 77.179 2.68607 77.613 2.27907C78.075 1.84507 78.685 1.62807 79.445 1.62807ZM71.916 26.9001C73.544 26.9001 74.792 26.3441 75.66 25.2311C76.555 24.1191 77.003 22.5311 77.003 20.4701C77.003 18.4081 76.555 16.8341 75.66 15.7501C74.792 14.6371 73.558 14.0801 71.957 14.0801C70.329 14.0801 69.067 14.6231 68.172 15.7091C67.277 16.7941 66.829 18.3541 66.829 20.3891C66.829 22.4511 67.277 24.0511 68.172 25.1911C69.067 26.3311 70.315 26.9001 71.916 26.9001ZM96.357 30.8471C94.323 30.8471 92.532 30.4271 90.986 29.5861C89.466 28.7451 88.286 27.5381 87.445 25.9641C86.604 24.3901 86.183 22.5591 86.183 20.4701C86.183 18.3811 86.603 16.5631 87.445 15.0171C88.286 13.4431 89.466 12.2361 90.985 11.3951C92.532 10.5541 94.323 10.1331 96.357 10.1331C98.392 10.1331 100.169 10.5531 101.688 11.3951C103.211 12.2117 104.447 13.4759 105.229 15.0171C106.07 16.5631 106.491 18.3811 106.491 20.4701C106.491 22.5601 106.07 24.3901 105.229 25.9641C104.447 27.5052 103.211 28.7694 101.688 29.5861C100.169 30.4261 98.392 30.8471 96.358 30.8471H96.357ZM96.317 26.9001C97.972 26.9001 99.233 26.3571 100.101 25.2721C100.97 24.1871 101.404 22.5861 101.404 20.4701C101.404 18.3811 100.97 16.7941 100.101 15.7091C99.233 14.5961 97.985 14.0401 96.357 14.0401C94.73 14.0401 93.467 14.5961 92.573 15.7091C91.705 16.7941 91.27 18.3811 91.27 20.4701C91.27 22.5861 91.704 24.1871 92.573 25.2721C93.441 26.3571 94.689 26.9001 96.317 26.9001ZM127.538 10.2151C128.298 10.2151 128.908 10.4321 129.369 10.8651C129.831 11.3001 130.061 11.8831 130.061 12.6151V28.6901C130.061 31.8101 129.193 34.1701 127.457 35.7721C125.72 37.3721 123.157 38.1721 119.765 38.1721C116.808 38.1721 114.339 37.6171 112.359 36.5041C111.355 35.9071 110.853 35.1881 110.853 34.3471C110.853 33.7501 110.989 33.2761 111.26 32.9231C111.558 32.5701 111.938 32.3931 112.399 32.3931C112.644 32.3931 112.942 32.4481 113.295 32.5571C113.647 32.6921 114.014 32.8421 114.393 33.0041C115.243 33.3656 116.112 33.6781 116.998 33.9401C117.785 34.1571 118.68 34.2661 119.684 34.2661C123.238 34.2661 125.015 32.5301 125.015 29.0561V26.4521C124.418 27.5651 123.55 28.4321 122.411 29.0571C121.271 29.6541 119.969 29.9521 118.504 29.9521C116.767 29.9521 115.221 29.5451 113.864 28.7321C112.535 27.8901 111.491 26.7241 110.731 25.2321C109.971 23.7391 109.591 22.0171 109.591 20.0631C109.591 18.1101 109.958 16.3871 110.69 14.8951C111.45 13.3751 112.508 12.2091 113.864 11.3951C115.221 10.5541 116.767 10.1331 118.504 10.1331C119.969 10.1331 121.271 10.4451 122.411 11.0691C123.521 11.6373 124.43 12.5322 125.015 13.6331V12.5751C125.015 11.8701 125.246 11.3001 125.707 10.8651C126.168 10.4321 126.779 10.2151 127.538 10.2151ZM119.847 26.0051C121.475 26.0051 122.736 25.4751 123.631 24.4181C124.554 23.3591 125.015 21.9081 125.015 20.0631C125.015 18.1911 124.554 16.7261 123.631 15.6681C122.736 14.6101 121.475 14.0811 119.847 14.0811C118.246 14.0811 116.984 14.6101 116.062 15.6681C115.14 16.7261 114.678 18.1911 114.678 20.0631C114.678 21.9081 115.14 23.3591 116.062 24.4181C116.984 25.4761 118.246 26.0051 119.847 26.0051ZM142.533 30.8471C139.576 30.8471 137.189 30.2641 135.371 29.0971C134.503 28.5821 134.069 27.8491 134.069 26.9001C134.069 26.3571 134.218 25.9231 134.516 25.5981C134.815 25.2451 135.181 25.0681 135.615 25.0681C136.076 25.0681 136.714 25.2861 137.528 25.7201C138.396 26.1271 139.183 26.4391 139.888 26.6561C140.621 26.8731 141.543 26.9811 142.655 26.9811C143.795 26.9811 144.677 26.7911 145.301 26.4111C145.952 26.0311 146.277 25.5031 146.277 24.8241C146.277 24.3641 146.142 23.9971 145.87 23.7261C145.626 23.4541 145.165 23.2101 144.487 22.9931C143.835 22.7491 142.832 22.4781 141.475 22.1791C139.061 21.6911 137.324 20.9991 136.266 20.1041C135.235 19.2091 134.72 17.9741 134.72 16.4011C134.72 15.2071 135.072 14.1351 135.778 13.1851C136.483 12.2091 137.446 11.4631 138.667 10.9471C139.915 10.4051 141.326 10.1331 142.899 10.1331C144.039 10.1331 145.138 10.2831 146.196 10.5811C147.205 10.8313 148.167 11.2433 149.045 11.8011C149.913 12.3441 150.347 13.0631 150.347 13.9591C150.347 14.5011 150.198 14.9631 149.899 15.3421C149.601 15.6951 149.234 15.8721 148.8 15.8721C148.502 15.8721 148.203 15.8171 147.905 15.7091C147.548 15.5273 147.195 15.3372 146.847 15.1391C146.06 14.7321 145.382 14.4341 144.812 14.2441C144.242 14.0271 143.537 13.9181 142.696 13.9181C141.692 13.9181 140.892 14.1221 140.295 14.5281C139.725 14.9351 139.44 15.4921 139.44 16.1971C139.44 16.8751 139.739 17.3911 140.336 17.7431C140.933 18.0961 142.086 18.4491 143.795 18.8021C145.613 19.1821 147.037 19.6151 148.068 20.1041C149.099 20.5921 149.831 21.2031 150.265 21.9351C150.727 22.6681 150.957 23.6041 150.957 24.7431C150.957 26.5881 150.184 28.0671 148.638 29.1791C147.118 30.2911 145.083 30.8471 142.533 30.8471Z" fill="#9C9C9C"/>
</svg>
