<svg width="156" height="38" viewBox="0 0 156 38" fill="none" xmlns="http://www.w3.org/2000/svg">
<path d="M2.55688 30.072C1.78449 30.072 1.15859 29.82 0.679171 29.316C0.22639 28.812 0 28.154 0 27.342V2.772C0 1.96 0.213073 1.33 0.639219 0.882C1.092 0.434 1.70459 0.21 2.47698 0.21H16.4999C18.1245 0.21 18.9369 0.938 18.9369 2.394C18.9369 3.822 18.1245 4.536 16.4999 4.536H5.0738V12.6H15.7008C17.3255 12.6 18.1379 13.328 18.1379 14.784C18.1379 16.212 17.3255 16.926 15.7008 16.926H5.0738V27.342C5.0738 28.154 4.84741 28.812 4.39463 29.316C3.94185 29.82 3.32927 30.072 2.55688 30.072ZM26.266 30.072C25.5469 30.072 24.9476 29.862 24.4682 29.442C24.0154 28.994 23.789 28.364 23.789 27.552V2.478C23.789 1.666 24.0154 1.05 24.4682 0.63C24.9476 0.21 25.5469 0 26.266 0C26.9851 0 27.5844 0.21 28.0638 0.63C28.5432 1.05 28.7829 1.666 28.7829 2.478V27.552C28.7829 28.364 28.5432 28.994 28.0638 29.442C27.5844 29.862 26.9851 30.072 26.266 30.072ZM49.394 24.192C49.8468 24.192 50.2063 24.374 50.4727 24.738C50.7656 25.102 50.9121 25.592 50.9121 26.208C50.9121 27.076 50.4194 27.804 49.4339 28.392C48.5284 28.924 47.5029 29.358 46.3577 29.694C45.2124 30.002 44.1204 30.156 43.0817 30.156C39.9389 30.156 37.4486 29.204 35.6108 27.3C33.773 25.396 32.8542 22.792 32.8542 19.488C32.8542 17.388 33.2537 15.526 34.0527 13.902C34.8517 12.278 35.9704 11.018 37.4086 10.122C38.8735 9.226 40.5248 8.778 42.3626 8.778C44.1204 8.778 45.6519 9.184 46.9569 9.996C48.262 10.808 49.2741 11.956 49.9932 13.44C50.7124 14.924 51.0719 16.674 51.0719 18.69C51.0719 19.894 50.5659 20.496 49.5538 20.496H37.7682C37.928 22.428 38.4473 23.856 39.3263 24.78C40.2052 25.676 41.4836 26.124 43.1616 26.124C44.0139 26.124 44.7596 26.012 45.3988 25.788C46.0647 25.564 46.8105 25.256 47.6361 24.864C48.4351 24.416 49.0211 24.192 49.394 24.192ZM42.4815 12.474C41.1231 12.474 40.0311 12.922 39.2055 13.818C38.4064 14.714 37.927 16.002 37.7672 17.682H46.7962C46.7429 15.974 46.3434 14.686 45.5977 13.818C44.8519 12.922 43.8132 12.474 42.4815 12.474ZM71.7058 25.956C72.1852 26.46 72.4249 27.034 72.4249 27.678C72.4249 28.294 72.1985 28.854 71.7457 29.358C71.2929 29.834 70.7603 30.072 70.1477 30.072C69.4818 30.072 68.9092 29.778 68.4298 29.19L62.7967 22.638L57.1635 29.19C56.6575 29.75 56.0849 30.03 55.4456 30.03C54.8597 30.03 54.3403 29.792 53.8875 29.316C53.4348 28.84 53.2084 28.294 53.2084 27.678C53.2084 27.034 53.4481 26.46 53.9275 25.956L59.7604 19.278L54.2471 12.978C53.7677 12.474 53.528 11.9 53.528 11.256C53.528 10.612 53.7544 10.066 54.2071 9.618C54.6599 9.142 55.1793 8.904 55.7652 8.904C56.4045 8.904 56.9771 9.184 57.4831 9.744L62.7967 15.876L68.1102 9.744C68.6162 9.184 69.1888 8.904 69.8281 8.904C70.4407 8.904 70.96 9.142 71.3862 9.618C71.8389 10.066 72.0653 10.612 72.0653 11.256C72.0653 11.9 71.8256 12.474 71.3462 12.978L65.8329 19.278L71.7058 25.956ZM93.8083 14.532C95.433 15.008 96.6848 15.876 97.5637 17.136C98.4693 18.396 98.9221 19.936 98.9221 21.756C98.9221 24.276 98.0565 26.25 96.3252 27.678C94.6207 29.106 92.2635 29.82 89.2539 29.82H78.9465C78.1741 29.82 77.5615 29.596 77.1087 29.148C76.6826 28.7 76.4695 28.07 76.4695 27.258V2.772C76.4695 1.96 76.6826 1.33 77.1087 0.882C77.5615 0.434 78.1741 0.21 78.9465 0.21H88.8534C91.7832 0.21 94.0737 0.896 95.725 2.268C97.403 3.612 98.2419 5.502 98.2419 7.938C98.2419 9.506 97.8424 10.864 97.0434 12.012C96.271 13.16 95.1923 14 93.8074 14.532H93.8083ZM81.5033 12.684H88.0154C91.5577 12.684 93.3289 11.298 93.3289 8.526C93.3289 7.126 92.8894 6.09 92.0105 5.418C91.1316 4.746 89.7999 4.41 88.0154 4.41H81.5033V12.684ZM88.6945 25.62C90.5589 25.62 91.9173 25.27 92.7696 24.57C93.6219 23.87 94.048 22.778 94.048 21.294C94.048 19.81 93.6086 18.704 92.7296 17.976C91.8773 17.248 90.5323 16.884 88.6945 16.884H81.5033V25.62H88.6945ZM105.778 30.072C105.059 30.072 104.46 29.862 103.981 29.442C103.528 28.994 103.301 28.364 103.301 27.552V2.478C103.301 1.666 103.528 1.05 103.981 0.63C104.46 0.21 105.059 0 105.778 0C106.498 0 107.097 0.21 107.576 0.63C108.056 1.05 108.295 1.666 108.295 2.478V27.552C108.295 28.364 108.056 28.994 107.576 29.442C107.097 29.862 106.498 30.072 105.778 30.072ZM122.354 30.156C120.357 30.156 118.599 29.722 117.081 28.854C115.589 27.986 114.431 26.74 113.605 25.116C112.779 23.492 112.367 21.602 112.367 19.446C112.367 17.29 112.779 15.414 113.605 13.818C114.431 12.194 115.589 10.948 117.081 10.08C118.599 9.212 120.357 8.778 122.354 8.778C124.352 8.778 126.096 9.212 127.588 10.08C129.083 10.923 130.296 12.2277 131.064 13.818C131.889 15.414 132.302 17.29 132.302 19.446C132.302 21.602 131.889 23.492 131.064 25.116C130.296 26.7063 129.083 28.011 127.588 28.854C126.096 29.722 124.352 30.156 122.354 30.156ZM122.314 26.082C123.939 26.082 125.178 25.522 126.03 24.402C126.882 23.282 127.308 21.63 127.308 19.446C127.308 17.29 126.882 15.652 126.03 14.532C125.178 13.384 123.952 12.81 122.354 12.81C120.756 12.81 119.518 13.384 118.639 14.532C117.787 15.652 117.361 17.29 117.361 19.446C117.361 21.63 117.787 23.282 118.639 24.402C119.491 25.522 120.716 26.082 122.314 26.082ZM152.965 8.862C153.71 8.862 154.31 9.086 154.762 9.534C155.215 9.982 155.442 10.584 155.442 11.34V27.93C155.442 31.15 154.589 33.586 152.885 35.238C151.18 36.89 148.663 37.716 145.334 37.716C142.431 37.716 140.007 37.142 138.063 35.994C137.077 35.378 136.585 34.636 136.585 33.768C136.585 33.152 136.718 32.662 136.984 32.298C137.277 31.934 137.65 31.752 138.103 31.752C138.342 31.752 138.635 31.808 138.982 31.92C139.328 32.06 139.688 32.214 140.06 32.382C141.019 32.802 141.872 33.124 142.617 33.348C143.39 33.572 144.269 33.684 145.254 33.684C148.743 33.684 150.488 31.892 150.488 28.308V25.62C149.902 26.768 149.049 27.664 147.931 28.308C146.812 28.924 145.534 29.232 144.095 29.232C142.391 29.232 140.873 28.812 139.541 27.972C138.236 27.104 137.211 25.9 136.465 24.36C135.719 22.82 135.346 21.042 135.346 19.026C135.346 17.01 135.706 15.232 136.425 13.692C137.171 12.124 138.209 10.92 139.541 10.08C140.873 9.212 142.391 8.778 144.095 8.778C145.534 8.778 146.812 9.1 147.931 9.744C149.021 10.3302 149.913 11.2537 150.488 12.39V11.298C150.488 10.57 150.714 9.982 151.167 9.534C151.62 9.086 152.219 8.862 152.965 8.862ZM145.414 25.158C147.012 25.158 148.25 24.612 149.129 23.52C150.035 22.428 150.488 20.93 150.488 19.026C150.488 17.094 150.035 15.582 149.129 14.49C148.25 13.398 147.012 12.852 145.414 12.852C143.842 12.852 142.604 13.398 141.698 14.49C140.793 15.582 140.34 17.094 140.34 19.026C140.34 20.93 140.793 22.428 141.698 23.52C142.604 24.612 143.842 25.158 145.414 25.158Z" fill="#9C9C9C"/>
</svg>
