<svg width="198" height="41" viewBox="0 0 198 41" fill="none" xmlns="http://www.w3.org/2000/svg">
<g clip-path="url(#clip0_1_223)">
<path fill-rule="evenodd" clip-rule="evenodd" d="M13.265 36.1229C13.1386 36.1217 13.014 36.09 12.901 36.0304C12.788 35.9708 12.6894 35.8847 12.613 35.7789C12.3958 35.4756 12.2491 35.1233 12.1846 34.7499C12.0814 34.2746 12.002 33.7939 11.9466 33.3099C11.8808 32.6866 11.8472 32.06 11.8457 31.4329C11.8261 30.0549 11.8306 28.6767 11.8591 27.2989C11.8762 26.4529 11.8838 25.7929 11.8838 25.3169V9.56489C11.8838 8.78889 11.8886 8.19889 11.8971 7.79389C11.9057 7.38889 11.9352 6.93089 11.9838 6.41989C12.0123 6.03989 12.0751 5.66389 12.1732 5.29689C12.2684 5.01389 12.395 4.74389 12.5492 4.49089C12.692 4.22589 12.8995 4.00689 13.1518 3.85689C13.445 3.70289 13.7467 3.56689 14.0551 3.44689C14.4526 3.29171 14.8645 3.18109 15.2841 3.11689C15.8308 3.03305 16.3792 2.96237 16.929 2.90489V1.44989L16.5006 0.999894H1.34411L0.942398 1.44989V2.69189C3.48594 2.85089 4.90811 3.60889 5.20892 4.96489C5.38407 6.10989 5.46784 7.26789 5.46023 8.42689V32.5539C5.50231 33.8071 5.4517 35.0619 5.30887 36.3069C5.23938 36.5009 5.13752 36.6789 5.00806 36.8349C4.81422 37.0784 4.60932 37.3121 4.39407 37.5349C4.22353 37.708 4.06028 37.8888 3.90478 38.0769V39.0019C16.8386 39.0019 24.8442 39.0899 27.9218 39.2669L29.0022 35.4349L28.3245 34.9319C23.3269 35.5929 18.3007 35.9899 13.266 36.1219H13.265V36.1229ZM37.3068 25.0769C37.2577 25.0913 37.2073 25.1001 37.1564 25.1029C36.9061 25.1029 36.7804 25.0069 36.7804 24.8129C36.7813 23.9369 36.8442 23.0619 36.9689 22.1959C37.1098 21.2519 37.3449 20.3259 37.6714 19.4349C37.9861 18.5315 38.4175 17.6778 38.9536 16.8979C39.5219 16.1045 40.2598 15.4626 41.1078 15.0242C41.9557 14.5857 42.89 14.363 43.8351 14.3739C44.5171 14.3341 45.1972 14.4814 45.8087 14.8012C46.4202 15.121 46.942 15.6023 47.3229 16.1979C48.1141 17.4297 48.5262 18.8871 48.5033 20.3729C48.5 20.6453 48.4176 20.9101 48.2673 21.132C48.1169 21.3539 47.9057 21.5224 47.6618 21.6149C46.2876 22.1967 44.8843 22.6997 43.4581 23.1219C41.4524 23.7419 39.4532 24.3853 37.461 25.0519C37.4089 25.0542 37.3572 25.0626 37.3068 25.0769ZM52.2139 33.3219C49.2011 35.2419 46.5995 36.2019 44.4101 36.2019C42.9268 36.2357 41.4704 35.7831 40.2435 34.9069C39.1021 34.1023 38.1946 32.9821 37.6209 31.6699C37.0562 30.354 36.7694 28.9253 36.7804 27.4819C47.7228 23.9059 53.2439 22.1169 53.3439 22.1169C53.7784 22.0235 54.1667 21.7696 54.4383 21.4011C54.7099 21.0327 54.8468 20.5742 54.8241 20.1089C54.8539 18.8116 54.5644 17.5282 53.9836 16.3829C53.4532 15.3585 52.6682 14.5045 51.7123 13.9119C50.7478 13.3172 49.7026 12.8805 48.6128 12.6169C47.4307 12.3357 46.2218 12.1982 45.0098 12.2069C42.8356 12.1715 40.6794 12.6267 38.6871 13.5419C36.9304 14.339 35.3784 15.5617 34.1578 17.1099C33.0072 18.6069 32.1191 20.3071 31.5353 22.1309C30.9299 24.0075 30.6243 25.9764 30.631 27.9579C30.631 32.0279 31.6781 35.0759 33.7685 37.1019C35.659 38.9519 38.3282 39.8759 41.7742 39.8759C43.75 39.8546 45.6948 39.3575 47.4591 38.4229C49.5837 37.3113 51.6189 36.0204 53.5447 34.5629L52.9955 33.5349L52.2149 33.3219H52.2139ZM86.0158 5.45689C85.3433 3.61168 84.0227 2.10772 82.3261 1.25489C80.2245 0.326042 77.9543 -0.106812 75.676 -0.0131064C74.0133 -0.0231252 72.3563 0.189931 70.745 0.620894C69.2462 1.0218 67.8154 1.66372 66.5033 2.52389C65.218 3.37504 64.1669 4.56436 63.4542 5.97389C62.6806 7.51566 62.2918 9.23837 62.3243 10.9809C62.3234 12.2282 62.6119 13.457 63.1649 14.5609C63.693 15.6534 64.4077 16.6347 65.2734 17.4559C66.2043 18.3185 67.1938 19.1089 68.2338 19.8209C69.2778 20.5516 70.3589 21.2219 71.4723 21.8289C72.519 22.3941 73.5485 22.9937 74.5594 23.6269C75.3971 24.1249 76.1834 24.7139 76.9059 25.3839C78.7621 27.1989 79.6912 28.9249 79.6912 30.5639C79.6878 31.4345 79.5145 32.2951 79.1822 33.0927C78.8498 33.8902 78.3654 34.6077 77.7588 35.2009C77.1566 35.852 76.4343 36.3672 75.636 36.7149C74.8378 37.0626 73.9803 37.2354 73.1163 37.2229C72.1059 37.2534 71.1023 37.0406 70.1823 36.6009C69.2623 36.1611 68.4502 35.5061 67.8083 34.6859C66.4763 33.0835 65.7489 31.0242 65.7636 28.8969L64.786 28.5269L59.7922 34.4199C60.9335 36.1551 62.4808 37.5522 64.2853 38.4769C66.12 39.4225 68.1389 39.9069 70.1824 39.8919C72.0471 39.882 73.8998 39.5787 75.6788 38.9919C77.4679 38.4261 79.1741 37.6033 80.7488 36.5469C82.2458 35.5426 83.5171 34.2085 84.4746 32.6369C85.4131 31.1425 85.9148 29.3922 85.9177 27.6019C85.9252 26.6411 85.7639 25.6871 85.4418 24.7879C85.1438 23.9528 84.7293 23.1689 84.2119 22.4619C83.6028 21.677 82.898 20.9796 82.1157 20.3879C81.261 19.7107 80.3684 19.088 79.4427 18.5229C78.3348 17.8597 77.2138 17.2209 76.0805 16.6069C75.2903 16.2045 74.5119 15.777 73.7464 15.3249C73.0225 14.8804 72.318 14.402 71.6351 13.8909C70.9349 13.3867 70.295 12.7958 69.7293 12.1309C69.2322 11.5104 68.826 10.8154 68.5242 10.0689C68.1892 9.26505 68.0183 8.39638 68.0225 7.51889C68.0071 6.80124 68.1289 6.08763 68.3807 5.42031C68.6325 4.75299 69.0092 4.14553 69.4885 3.63389C69.995 3.10204 70.6012 2.68653 71.2686 2.41369C71.9361 2.14085 72.6501 2.01662 73.3657 2.04889C74.252 2.00868 75.1358 2.17494 75.9537 2.53576C76.7716 2.89657 77.5035 3.44301 78.0967 4.13589C79.2854 5.5492 80.0341 7.31068 80.2424 9.18389L81.121 9.47389L86.0158 5.45689ZM110.421 15.5919C109.973 14.7671 109.323 14.0829 108.539 13.6099C107.763 13.1441 106.926 12.8014 106.055 12.5929C105.12 12.3751 104.164 12.2687 103.207 12.2759C101.38 12.2489 99.5635 12.5759 97.8482 13.2409C96.3768 13.8022 95.0284 14.6695 93.8834 15.7909C92.8194 16.8738 91.9369 18.1375 91.2732 19.5289C90.591 20.9286 90.0888 22.4173 89.7797 23.9559C89.4748 25.5121 89.3236 27.0971 89.3285 28.6859C89.3227 30.0359 89.5046 31.3799 89.8672 32.6739C90.2195 33.9269 90.7668 35.1099 91.4855 36.1759C92.2434 37.2754 93.2598 38.1496 94.4355 38.7129C95.7854 39.3609 97.2561 39.6819 98.7392 39.6509C103.441 39.6509 107.858 37.4749 111.99 33.1239L111.488 32.3569L110.861 32.1989C107.8 34.6829 104.971 35.9249 102.378 35.9249C101.408 35.9413 100.448 35.71 99.5807 35.2509C98.7947 34.841 98.1106 34.2442 97.5826 33.5079C97.0584 32.751 96.632 31.9245 96.3146 31.0499C95.9852 30.1766 95.7455 29.2687 95.5997 28.3419C95.4665 27.4679 95.3998 26.5839 95.3989 25.6989C95.4046 24.5739 95.4969 23.4519 95.6749 22.3429C95.872 21.1079 96.1661 19.8929 96.5536 18.7089C96.9054 17.5518 97.5165 16.5003 98.3356 15.6429C98.6961 15.2592 99.1261 14.9551 99.6002 14.7487C100.074 14.5423 100.583 14.4376 101.096 14.4409C101.782 14.4012 102.465 14.5632 103.067 14.9088C103.67 15.2543 104.169 15.7697 104.509 16.3969C105.285 17.8656 105.666 19.5281 105.613 21.2069L106.492 21.5769L111.235 18.6179C111.196 17.5557 110.917 16.5185 110.421 15.5919ZM119.62 23.4539C119.747 22.4159 119.97 21.3939 120.285 20.4019C120.573 19.4369 120.983 18.5179 121.502 17.6669C122 16.8786 122.666 16.2227 123.447 15.7509C124.289 15.2401 125.248 14.9798 126.22 14.9979C127.275 14.9697 128.315 15.2583 129.219 15.8299C130.059 16.3792 130.733 17.1673 131.164 18.1029C131.618 19.0699 131.946 20.0959 132.141 21.1549C132.348 22.2949 132.45 23.4549 132.443 24.6169C132.443 25.6739 132.434 26.5549 132.417 27.2589C132.391 28.107 132.332 28.9536 132.242 29.7969C132.168 30.6269 132.03 31.4479 131.828 32.2539C131.631 32.9639 131.375 33.6539 131.063 34.3159C130.775 34.9712 130.361 35.5561 129.845 36.0329C129.313 36.4894 128.71 36.8469 128.063 37.0899C127.279 37.3848 126.45 37.5281 125.617 37.5129C124.699 37.5247 123.8 37.2383 123.044 36.6929C122.306 36.1734 121.692 35.4818 121.25 34.6719C120.787 33.8003 120.424 32.8733 120.171 31.9109C119.904 30.9638 119.711 29.9957 119.593 29.0159C119.496 28.1697 119.446 27.3182 119.443 26.4659C119.442 25.459 119.501 24.4531 119.62 23.4539ZM116.508 37.1169C118.331 38.8609 121.226 39.7329 125.191 39.7329C126.657 39.7429 128.119 39.5659 129.545 39.2039C130.887 38.8536 132.165 38.2782 133.332 37.4999C134.505 36.7226 135.53 35.7233 136.356 34.5529C137.26 33.2258 137.931 31.7402 138.339 30.1659C138.845 28.2567 139.09 26.2816 139.067 24.2999C139.116 22.7043 138.834 21.1167 138.24 19.6473C137.646 18.1778 136.755 16.8615 135.629 15.7899C133.537 13.8179 130.5 12.8309 126.519 12.8309C122.537 12.8309 119.258 14.1259 116.681 16.7159C115.416 17.972 114.418 19.4946 113.752 21.1842C113.086 22.8737 112.767 24.692 112.816 26.5199C112.816 31.2419 114.045 34.7739 116.505 37.1169H116.508ZM155.782 16.1869C157.121 16.1869 158.074 16.4689 158.644 17.0329C159.174 17.7129 159.509 18.5389 159.609 19.4129C159.819 20.4429 159.95 21.4909 159.998 22.5439C160.032 23.4689 160.049 24.6629 160.049 26.1249C160.047 28.0233 160.035 29.9217 160.012 31.8199C160.003 32.3919 160.007 33.0659 160.023 33.8419C160.028 34.4199 160.061 34.9979 160.124 35.5719C160.174 35.9519 160.241 36.3659 160.325 36.8139C160.383 37.1899 160.502 37.5509 160.676 37.8839C160.826 38.1489 161.011 38.3899 161.226 38.5989C161.979 39.3166 162.97 39.6957 163.986 39.6549C165.241 39.6549 166.68 38.9849 168.303 37.6469C169.657 36.4635 170.947 35.2015 172.168 33.8669L171.591 32.9669H170.988C170.007 33.7941 168.807 34.2833 167.551 34.3679C167.285 34.3839 167.019 34.343 166.768 34.2476C166.518 34.1522 166.289 34.0043 166.094 33.8129C165.921 33.669 165.772 33.4952 165.655 33.2989C165.517 32.9532 165.428 32.5879 165.392 32.2149C165.296 31.4573 165.254 30.6931 165.266 29.9289C165.266 29.3479 165.296 28.4089 165.354 27.1149C165.401 26.1949 165.43 25.2741 165.442 24.3529V22.7669C165.459 21.0579 165.455 19.8739 165.43 19.2119C165.38 18.3087 165.283 17.4091 165.141 16.5169C165.078 15.6757 164.81 14.8656 164.363 14.1649C163.921 13.6614 163.393 13.2494 162.806 12.9499C162.01 12.545 161.131 12.3497 160.247 12.3809C157.302 12.3809 153.889 13.6499 150.008 16.1869L149.405 15.9489C149.373 14.9772 149.072 14.0363 148.54 13.2409C148.046 12.5609 147.197 12.2229 145.993 12.2229C145.271 12.2324 144.555 12.3617 143.872 12.6059C143.077 12.8859 142.318 13.2679 141.612 13.7419C140.85 14.2449 140.19 14.7119 139.629 15.1429C139.068 15.5739 138.42 16.0979 137.684 16.7149L138.612 18.0099C138.783 17.8939 138.955 17.7796 139.127 17.6669C139.42 17.4729 139.675 17.3149 139.893 17.1909C140.11 17.0679 140.37 16.9229 140.67 16.7549C140.94 16.6009 141.222 16.4719 141.512 16.3689C141.734 16.2889 141.966 16.2439 142.201 16.2369C142.491 16.2299 142.778 16.3069 143.029 16.4619C143.284 16.6389 143.477 16.8989 143.579 17.2019C143.705 17.5219 143.814 17.8469 143.905 18.1789C144.008 18.6259 144.067 19.0819 144.081 19.5409C144.115 20.1409 144.135 20.6249 144.142 20.9939C144.15 21.3629 144.154 21.9179 144.154 22.6589V23.1089C144.154 24.8349 144.029 30.1199 143.778 38.9639L144.406 39.3339L150.053 37.6159C149.885 36.8589 149.759 34.4719 149.676 30.4559C149.593 26.5275 149.552 22.5983 149.554 18.6689C152.465 17.0129 154.539 16.1849 155.777 16.1849L155.782 16.1869ZM180.126 25.1969C180.077 25.2122 180.026 25.2216 179.975 25.2249C179.725 25.2249 179.599 25.1279 179.598 24.9349C179.599 24.0579 179.662 23.1839 179.788 22.3179C179.929 21.3739 180.164 20.4479 180.489 19.5559C180.804 18.6529 181.235 17.7989 181.77 17.0189C182.338 16.2253 183.076 15.5832 183.924 15.1447C184.772 14.7063 185.706 14.4836 186.651 14.4949C187.333 14.455 188.013 14.6022 188.625 14.922C189.236 15.2418 189.758 15.7232 190.139 16.3189C190.93 17.5506 191.342 19.0081 191.318 20.4939C191.315 20.766 191.232 21.0306 191.082 21.2524C190.932 21.4742 190.721 21.6428 190.478 21.7359C189.104 22.3174 187.701 22.8204 186.275 23.2429C184.269 23.8628 182.27 24.5062 180.277 25.1729C180.226 25.1758 180.176 25.1842 180.127 25.1979H180.126V25.1969ZM195.033 33.4429C192.02 35.3639 189.418 36.3239 187.228 36.3229C185.745 36.3565 184.289 35.9042 183.061 35.0289C181.921 34.224 181.013 33.1039 180.44 31.7919C179.875 30.4755 179.587 29.046 179.598 27.6019C190.541 24.0269 196.062 22.2389 196.163 22.2389C196.597 22.1451 196.986 21.8909 197.257 21.5224C197.529 21.1538 197.666 20.6953 197.643 20.2299C197.673 18.9326 197.383 17.6492 196.802 16.5039C196.272 15.4795 195.487 14.6256 194.531 14.0329C193.567 13.4384 192.521 13.0018 191.432 12.7379C190.249 12.4566 189.04 12.3191 187.828 12.3279C185.654 12.2927 183.499 12.7479 181.507 13.6629C179.75 14.4599 178.198 15.6826 176.978 17.2309C175.827 18.7277 174.939 20.4279 174.355 22.2519C173.75 24.1284 173.444 26.0975 173.452 28.0789C173.452 32.1489 174.497 35.1959 176.588 37.2229C178.479 39.0729 181.147 39.9969 184.594 39.9969C186.57 39.9755 188.515 39.4785 190.279 38.5439C192.403 37.4321 194.438 36.1415 196.365 34.6849L195.815 33.6559L195.033 33.4429Z" fill="#9C9C9C"/>
</g>
<defs>
<clipPath id="clip0_1_223">
<rect width="198" height="41" fill="white"/>
</clipPath>
</defs>
</svg>
