<svg width="190" height="49" viewBox="0 0 190 49" fill="none" xmlns="http://www.w3.org/2000/svg">
<g clip-path="url(#clip0_1_228)">
<path d="M51.6619 44.0141C48.5079 44.0141 46.0902 43.4461 44.4077 42.3101C42.7547 41.1421 41.9292 39.4371 41.9292 37.1961C41.9292 36.0601 42.2902 35.1281 43.0103 34.4021C43.7617 33.6451 44.7231 33.2661 45.8945 33.2661C46.5851 33.2981 47.1105 33.4861 47.4715 33.8341C47.8325 34.1501 48.013 34.4501 48.013 34.7341C48.013 34.7651 47.8619 34.8761 47.5617 35.0651C47.2615 35.2551 46.9917 35.5391 46.7504 35.9171C46.5101 36.2971 46.3894 36.8171 46.3894 37.4801C46.3894 38.9641 46.8112 40.1161 47.652 40.9371C48.5231 41.7261 49.8598 42.1201 51.6619 42.1201C52.8941 42.1201 53.9752 41.8681 54.9071 41.3631C55.8381 40.8581 56.544 40.1951 57.0247 39.3741C57.5348 38.5221 57.7904 37.6381 57.7904 36.7221C57.7904 35.5861 57.475 34.6081 56.8442 33.7871C56.2315 32.9555 55.4653 32.2629 54.5917 31.7511C53.6892 31.1831 52.458 30.5351 50.8962 29.8091C49.0941 28.9571 47.6377 28.1841 46.5262 27.4891C45.4093 26.7902 44.4422 25.8552 43.6857 24.7431C42.9058 23.5751 42.5153 22.1391 42.5153 20.4341C42.5153 17.6881 43.4007 15.6361 45.1734 14.2791C46.9765 12.9211 49.3344 12.2431 52.2481 12.2431C54.5309 12.2431 56.5136 12.7481 58.196 13.7581C59.9089 14.7681 60.7648 16.2521 60.7648 18.2081C60.7648 19.3451 60.3886 20.2921 59.6381 21.0501C58.9171 21.7761 57.9709 22.1391 56.7995 22.1391C56.1079 22.1071 55.5826 21.9331 55.2225 21.6181C54.8615 21.2711 54.681 20.9551 54.681 20.6711C54.681 20.6391 54.8767 20.5291 55.2672 20.3391C55.688 20.1501 56.0481 19.8661 56.3483 19.4871C56.6789 19.1081 56.8442 18.5871 56.8442 17.9251C56.8442 16.7571 56.4091 15.8411 55.5379 15.1781C54.6962 14.5151 53.6151 14.1841 52.2927 14.1841C50.4611 14.1841 49.0637 14.6421 48.1032 15.5571C47.1713 16.4411 46.7058 17.5461 46.7058 18.8721C46.7058 19.9761 46.9908 20.9081 47.5617 21.6651C48.1317 22.3911 49.0485 23.1171 50.3101 23.8431C51.4041 24.4486 52.5162 25.0172 53.6446 25.5481C55.5674 26.4631 57.0845 27.3001 58.196 28.0581C59.3405 28.8188 60.31 29.8377 61.0346 31.0411C61.8155 32.2711 62.2069 33.8031 62.2069 35.6331C62.2069 37.2121 61.7262 38.6481 60.7648 39.9431C59.8338 41.2051 58.5561 42.1991 56.9344 42.9251C55.3422 43.6511 53.5847 44.0151 51.6619 44.0151V44.0141ZM74.4743 43.6361C72.4318 43.6361 70.8092 42.9881 69.6075 41.6941C68.4057 40.4001 67.8053 38.6951 67.8053 36.5801V27.8201C67.8053 27.0001 67.7749 26.4001 67.715 26.0211C67.6856 25.6431 67.5051 25.3111 67.1735 25.0271C66.8439 24.7431 66.2881 24.6011 65.5072 24.6011C65.1462 24.6011 64.8764 24.5541 64.6959 24.4591C64.5154 24.3331 64.4261 24.0641 64.4261 23.6541C64.4261 23.4641 64.486 23.2911 64.6067 23.1341C64.7264 22.9441 64.9068 22.8341 65.1472 22.8021C67.0396 22.5171 68.6622 22.1071 70.0131 21.5701C70.4339 21.4131 70.7788 21.3181 71.0495 21.2861H71.1844C71.6651 21.2861 71.9064 21.5861 71.9064 22.1861V36.5331C71.9064 37.9851 72.3415 39.1061 73.2127 39.8951C74.0572 40.6425 75.1286 41.0456 76.2318 41.0311C77.6435 41.0311 78.8443 40.6681 79.8361 39.9421C80.8279 39.2161 81.4891 38.4901 81.8187 37.7641V27.8211C81.8187 27.0001 81.7893 26.4011 81.7294 26.0211C81.699 25.6431 81.5185 25.3111 81.1879 25.0271C80.8573 24.7431 80.3016 24.6011 79.5207 24.6011C79.1597 24.6011 78.8899 24.5541 78.7103 24.4591C78.5298 24.3331 78.4396 24.0641 78.4396 23.6541C78.4396 23.4641 78.4995 23.2911 78.6201 23.1341C78.7398 22.9441 78.9203 22.8341 79.1607 22.8021C81.0531 22.5171 82.6756 22.1071 84.0275 21.5701C84.4474 21.4131 84.7932 21.3181 85.063 21.2861H85.1988C85.6795 21.2861 85.9199 21.5861 85.9199 22.1861V38.5701C85.9199 40.4331 87.1064 41.3641 89.4795 41.3641C89.9897 41.3641 90.2453 41.6641 90.2453 42.2641C90.2453 42.7051 89.9897 42.9741 89.4795 43.0681L82.2244 43.5891C82.0145 43.5891 81.8938 43.5101 81.8634 43.3531C81.8349 43.2261 81.8187 42.9901 81.8187 42.6431V39.9901H81.7294C81.0398 40.672 80.3334 41.3349 79.611 41.9781C79.0704 42.4201 78.3645 42.7991 77.4924 43.1151C76.6517 43.4621 75.6456 43.6351 74.4743 43.6351V43.6361ZM92.7105 43.2101C92.6055 43.2096 92.502 43.1836 92.4081 43.1342C92.3142 43.0848 92.2324 43.0132 92.169 42.9251C92.0493 42.7361 91.9885 42.5151 91.9885 42.2631C92.0189 41.8531 92.1091 41.6151 92.2592 41.5531C92.4103 41.4581 92.6801 41.4101 93.0705 41.4101C93.8514 41.4101 94.4072 41.2681 94.7378 40.9841C95.0684 40.7001 95.2489 40.3681 95.2783 39.9901C95.3391 39.6101 95.3686 39.0111 95.3686 38.1901V27.3471C95.3686 26.5271 95.3391 25.9271 95.2783 25.5471C95.2489 25.1691 95.0684 24.8371 94.7378 24.5541C94.4072 24.2701 93.8514 24.1271 93.0705 24.1271C92.7095 24.1271 92.4397 24.0801 92.2602 23.9851C92.0797 23.8591 91.9894 23.5911 91.9894 23.1801C91.9894 22.9911 92.0493 22.8171 92.17 22.6601C92.2896 22.4701 92.4701 22.3601 92.7105 22.3281C94.6627 22.0121 96.2701 21.6021 97.5317 21.0971C98.0428 20.9391 98.3877 20.8441 98.5682 20.8131H98.7031C99.1838 20.8131 99.4241 21.1131 99.4241 21.7131V24.6481H99.5591C100.611 23.5431 101.678 22.6751 102.759 22.0441C103.841 21.3811 104.816 21.0501 105.687 21.0501C106.679 21.0501 107.46 21.4441 108.031 22.2331C108.632 22.9911 108.932 23.8751 108.932 24.8851C108.932 25.7691 108.677 26.5581 108.166 27.2521C107.655 27.9471 106.949 28.2941 106.048 28.2941C105.656 28.3013 105.268 28.2036 104.922 28.0101C104.622 27.8201 104.456 27.6631 104.426 27.5371C104.456 27.4741 104.606 27.2841 104.876 26.9681C105.147 26.6211 105.282 26.2271 105.282 25.7851C105.282 25.2161 105.132 24.7591 104.832 24.4121C104.561 24.0641 104.186 23.8911 103.705 23.8911C103.195 23.8911 102.549 24.1591 101.768 24.6961C100.986 25.2011 100.22 25.8481 99.4697 26.6371V38.1901C99.4697 39.0111 99.4992 39.6101 99.5591 39.9901C99.6199 40.3681 99.8146 40.7001 100.145 40.9841C100.476 41.2681 101.032 41.4101 101.812 41.4101H102.083C102.324 41.4101 102.503 41.4581 102.624 41.5521C102.743 41.6471 102.818 41.8841 102.849 42.2621C102.849 42.5151 102.789 42.7361 102.668 42.9251C102.549 43.1151 102.368 43.2101 102.128 43.2101C100.552 43.12 98.9748 43.0723 97.3969 43.0671C96.045 43.0671 94.4832 43.1151 92.7105 43.2091V43.2101ZM162.694 43.6361C160.652 43.6361 158.834 43.1301 157.242 42.1201C155.65 41.0791 154.403 39.7211 153.502 38.0481C152.643 36.3928 152.194 34.5363 152.196 32.6501C152.196 30.2831 152.721 28.2311 153.773 26.4951C154.824 24.7271 156.161 23.3851 157.783 22.4701C159.405 21.5231 161.042 21.0501 162.694 21.0501C164.738 21.0501 166.555 21.5701 168.147 22.6121C169.709 23.5888 170.987 24.9971 171.842 26.6841C172.731 28.3112 173.198 30.1567 173.194 32.0341C173.194 34.4021 172.653 36.4701 171.572 38.2381C170.52 39.9741 169.184 41.3151 167.561 42.2621C165.939 43.1781 164.317 43.6361 162.694 43.6361ZM162.694 41.8841C164.738 41.8841 166.224 40.9681 167.155 39.1371C168.117 37.3071 168.597 34.9391 168.597 32.0351C168.597 29.3201 168.102 27.1111 167.111 25.4051C166.149 23.6701 164.677 22.8021 162.694 22.8021C160.622 22.8021 159.12 23.7021 158.188 25.5011C157.257 27.3001 156.792 29.6511 156.792 32.5561C156.792 35.2701 157.272 37.5121 158.234 39.2791C159.195 41.0161 160.682 41.8841 162.694 41.8841ZM184.548 43.8721C183.075 43.8721 181.814 43.3041 180.762 42.1681C179.712 41.0311 179.185 39.4061 179.185 37.2911V23.3701L176.572 23.4651C176.484 23.4658 176.398 23.4448 176.32 23.4036C176.241 23.3624 176.173 23.3022 176.121 23.2281C176.003 23.0468 175.94 22.832 175.941 22.6121C175.941 22.3281 175.987 22.0921 176.076 21.9021C176.197 21.6811 176.362 21.5551 176.572 21.5231C177.623 21.3031 178.435 20.9551 179.006 20.4821C179.606 19.9761 180.042 19.4401 180.312 18.8721C180.583 18.2721 180.913 17.3721 181.304 16.1721C181.454 15.7621 181.784 15.5571 182.295 15.5571C182.505 15.5571 182.715 15.6201 182.925 15.7471C183.135 15.8411 183.241 15.9991 183.241 16.2201L182.925 21.6181L188.198 21.2861H188.288C188.679 21.2861 188.873 21.5861 188.873 22.1861C188.873 22.5331 188.813 22.8651 188.693 23.1801C188.603 23.4651 188.483 23.6071 188.333 23.6071L183.286 23.4651V37.8591C183.286 38.9011 183.481 39.7691 183.872 40.4631C184.292 41.1581 184.968 41.5051 185.9 41.5051C186.831 41.5051 187.657 41.3311 188.377 40.9841C188.769 40.8261 189.008 40.7471 189.098 40.7471C189.309 40.7471 189.475 40.8421 189.594 41.0311C189.715 41.1891 189.835 41.4111 189.955 41.6941C189.987 41.7685 190.002 41.8495 190 41.9311C190 42.0571 189.91 42.1991 189.729 42.3571C188.858 42.9571 188.033 43.3521 187.252 43.5411C186.5 43.7611 185.599 43.8721 184.548 43.8721ZM111.717 42.9251C111.837 43.1151 112.017 43.2091 112.258 43.2091C113.818 43.1189 115.381 43.0716 116.944 43.0671C118.957 43.0671 120.834 43.1151 122.577 43.2091C122.676 43.2115 122.773 43.1865 122.86 43.1367C122.948 43.0868 123.021 43.0139 123.073 42.9251C123.192 42.7351 123.252 42.5151 123.252 42.2621C123.223 41.8841 123.148 41.6471 123.027 41.5521C122.937 41.4581 122.757 41.4101 122.486 41.4101H122.216C121.225 41.4101 120.519 41.3311 120.098 41.1731C119.677 41.0161 119.392 40.7311 119.242 40.3211C119.092 39.8791 119.017 39.1691 119.017 38.1911V23.4631H123.794C123.898 23.4626 124.002 23.4367 124.095 23.3874C124.189 23.3382 124.271 23.2669 124.334 23.1791C124.484 22.9901 124.559 22.7691 124.559 22.5161C124.529 22.1381 124.439 21.9011 124.288 21.8061C124.169 21.6801 123.973 21.6161 123.703 21.6161H119.017V18.7761C119.017 17.2611 119.077 15.9351 119.196 14.7981C119.309 13.6566 119.663 12.5563 120.233 11.5781C120.804 10.6001 121.69 10.1111 122.892 10.1111C123.03 10.1111 123.164 10.1191 123.293 10.1361C123.276 9.60562 123.309 9.07469 123.392 8.5511C123.33 8.54931 123.269 8.54831 123.207 8.5481C120.564 8.6111 118.506 9.6681 117.034 11.7211C115.592 13.7411 114.871 16.3771 114.871 19.6281V21.6171H112.167C111.777 21.6171 111.506 21.6641 111.356 21.7591C111.206 21.8221 111.116 22.0751 111.086 22.5161C111.086 22.7691 111.146 22.9901 111.266 23.1791C111.417 23.3691 111.612 23.4641 111.852 23.4641H114.871V38.1901C114.871 39.0431 114.841 39.6581 114.781 40.0371C114.751 40.3841 114.571 40.7001 114.24 40.9841C113.91 41.2681 113.354 41.4101 112.573 41.4101C112.183 41.4101 111.912 41.4581 111.762 41.5521C111.642 41.6151 111.567 41.8521 111.537 42.2621C111.537 42.5151 111.596 42.7361 111.717 42.9251Z" fill="#9C9C9C"/>
<path fill-rule="evenodd" clip-rule="evenodd" d="M135.804 9.865C135.804 10.5564 135.674 11.2409 135.422 11.8794C135.17 12.518 134.801 13.098 134.336 13.5865C133.871 14.0749 133.319 14.4622 132.712 14.7261C132.105 14.9901 131.455 15.1257 130.798 15.125C129.471 15.1261 128.199 14.5725 127.26 13.5862C126.321 12.5998 125.793 11.2613 125.791 9.865C125.792 9.17346 125.922 8.48879 126.174 7.85009C126.425 7.21139 126.794 6.63117 127.259 6.14255C127.724 5.65392 128.276 5.26647 128.883 5.00232C129.49 4.73816 130.141 4.60247 130.798 4.603C131.455 4.60234 132.106 4.73794 132.713 5.00205C133.32 5.26616 133.872 5.6536 134.337 6.14225C134.802 6.6309 135.171 7.21118 135.422 7.84994C135.674 8.4887 135.804 9.17342 135.804 9.865ZM130.798 12.495C131.126 12.4954 131.452 12.4277 131.755 12.2957C132.059 12.1637 132.335 11.9701 132.567 11.7259C132.8 11.4816 132.984 11.1916 133.11 10.8723C133.236 10.553 133.301 10.2107 133.301 9.865C133.301 9.51919 133.236 9.1768 133.11 8.85739C132.984 8.53798 132.8 8.24782 132.567 8.00348C132.335 7.75914 132.059 7.56542 131.755 7.43339C131.452 7.30136 131.126 7.2336 130.798 7.234C130.135 7.23373 129.499 7.51058 129.029 8.00371C128.56 8.49685 128.296 9.16594 128.295 9.864C128.295 10.5622 128.559 11.2316 129.029 11.7249C129.498 12.2183 130.135 12.4953 130.798 12.495ZM128.603 17.414V42.784C128.603 43.067 128.679 43.288 128.829 43.446C128.98 43.636 129.19 43.73 129.46 43.73C129.73 43.73 129.955 43.604 130.136 43.352C130.316 43.131 130.482 42.799 130.632 42.357C130.782 41.915 130.917 41.568 131.037 41.315H131.262C133.215 42.862 135.528 43.635 138.201 43.635C140.004 43.635 141.701 43.13 143.293 42.12C144.885 41.11 146.147 39.737 147.079 38C148.039 36.233 148.52 34.292 148.52 32.177C148.52 30.03 148.1 28.121 147.259 26.447C146.448 24.743 145.321 23.417 143.879 22.47C142.437 21.523 140.83 21.05 139.058 21.05C137.976 21.05 136.88 21.286 135.768 21.76C134.687 22.202 133.711 22.88 132.839 23.796H132.705V17.5C131.356 17.8685 129.937 17.8388 128.603 17.414ZM142.212 39.421C141.101 41.158 139.628 42.026 137.797 42.026C136.835 42.026 135.979 41.805 135.228 41.363C134.507 40.921 133.921 40.4 133.47 39.8C133.049 39.169 132.795 38.6 132.705 38.096V25.596C133.996 24.143 135.588 23.417 137.481 23.417C139.614 23.417 141.22 24.301 142.302 26.069C143.383 27.805 143.924 29.904 143.924 32.366C143.924 35.302 143.354 37.654 142.212 39.421ZM12.065 0.366998C12.3837 0.127971 12.7652 -0.000488281 13.1565 -0.000488281C13.5478 -0.000488281 13.9294 0.127971 14.2481 0.366998C22.3801 6.471 26.0661 13.788 26.2988 24.287C26.4062 29.3 25.9473 33.89 24.5499 37.855C23.1154 41.823 20.5665 45.488 16.814 48.584C16.5804 48.7751 16.3072 48.9055 16.0167 48.9646C15.7262 49.0237 15.4265 49.0098 15.142 48.924C13.9925 48.577 13.7968 47.145 13.1565 46.253C12.5162 47.145 12.3224 48.576 11.171 48.923C10.8867 49.0086 10.5872 49.0224 10.2969 48.9633C10.0065 48.9043 9.73352 48.774 9.49998 48.583C5.74748 45.488 3.19768 41.823 1.76413 37.855C0.367634 33.89 -0.0921661 29.3 0.0151839 24.287C0.246984 13.788 3.93298 6.47 12.065 0.366998ZM16.2697 44.062C18.6181 41.792 20.0336 39.317 21.033 36.47C22.2917 32.99 22.6546 29.144 22.5454 24.379C22.3649 16.192 20.5409 10.865 15.0185 5.919V20.387C17.1779 20.971 18.1469 23.197 18.1469 25.647C18.1469 28.099 17.1779 30.325 15.0185 30.909V42.746C15.0185 42.746 16.0217 43.719 16.2697 44.062ZM10.0111 44.062C7.66268 41.792 6.28043 39.317 5.28008 36.47C4.02228 32.99 3.65938 29.144 3.76958 24.379C3.95008 16.209 5.76363 10.859 11.2632 5.919V20.387C9.10383 20.971 8.13388 23.197 8.13388 25.647C8.13388 28.099 9.10288 30.325 11.2632 30.909V42.746C11.2632 42.746 10.2505 43.731 10.0111 44.062ZM13.1404 23.017C12.4771 23.0165 11.8409 23.2932 11.3714 23.7864C10.902 24.2796 10.6379 24.9489 10.6371 25.647C10.6371 27.101 11.7581 28.278 13.1404 28.278C13.8036 28.2785 14.4399 28.0018 14.9093 27.5086C15.3787 27.0154 15.6429 26.3461 15.6436 25.648C15.6436 24.195 14.5226 23.018 13.1404 23.018V23.017Z" fill="#9C9C9C"/>
</g>
<defs>
<clipPath id="clip0_1_228">
<rect width="190" height="49" fill="white"/>
</clipPath>
</defs>
</svg>
