<svg width="187" height="34" viewBox="0 0 187 34" fill="none" xmlns="http://www.w3.org/2000/svg">
<path d="M20.6501 32.9551C19.5307 32.9866 18.4216 32.7221 17.4253 32.1861C16.4344 31.6538 15.5892 30.8657 14.9695 29.8961C13.0183 31.7746 10.4904 32.8596 7.84255 32.9551C3.08455 32.9551 0.505663 29.4911 1.37674 24.5251C2.03887 20.7911 5.0013 17.0491 5.82944 14.0451C4.22658 13.0371 1.8471 12.3351 0.731781 14.3951L0 13.9361C0.583898 11.6781 1.99498 10.1761 4.03386 10.1761C6.07273 10.1761 7.58018 11.4261 9.52364 10.2751H11.074C10.2468 14.7731 8.15549 18.3711 7.04017 24.6691C6.36086 28.5291 7.62407 30.2831 9.7593 30.2831C11.3366 30.0798 12.7876 29.2758 13.8361 28.0241C12.9846 25.8277 12.5553 23.4768 12.5729 21.1061C12.5729 15.6361 15.0039 9.87009 19.0816 9.87009C21.173 9.87009 22.7234 11.3721 22.7234 14.9351C22.7234 18.4971 20.633 24.0121 17.9663 27.4751C18.1104 28.3001 18.5292 29.0471 19.1494 29.5881C19.7695 30.1281 20.5528 30.4281 21.3647 30.4361C25.2507 30.4361 27.9689 24.4161 27.9689 18.8481C27.9689 13.2801 25.6343 13.5311 25.8346 11.6511C25.8527 11.4162 25.9148 11.1873 26.0175 10.9776C26.1201 10.7679 26.2613 10.5815 26.4328 10.4291C26.7801 10.1191 27.2324 9.96409 27.6903 9.99609C28.902 9.99609 30.4953 11.5791 30.4953 18.0031C30.4953 26.1891 26.2783 32.9551 20.6492 32.9551H20.6501ZM19.7705 12.6951C18.5588 12.6951 17.391 17.3101 17.2431 22.0781C17.1866 23.0977 17.2041 24.1203 17.2956 25.1371C19.1228 22.0182 20.2379 18.499 20.5538 14.8541C20.5452 13.2341 20.258 12.6941 19.7695 12.6941L19.7705 12.6951ZM38.4772 32.7481C37.969 32.8023 37.4557 32.7406 36.9726 32.5671C36.4912 32.3947 36.0517 32.1141 35.6846 31.7451C35.3198 31.3781 35.037 30.9311 34.8564 30.4361C34.6762 29.9432 34.6032 29.4143 34.6427 28.8881C34.6427 26.6841 37.4143 15.6991 37.4143 13.8911C37.4143 13.0371 37.2225 12.5331 36.4908 12.5331C35.6743 12.6704 34.9139 13.0548 34.303 13.6391V12.0831C35.5715 10.877 37.2089 10.1849 38.9208 10.1311C39.4321 10.0834 39.9472 10.1516 40.4311 10.3311C40.9139 10.5111 41.3528 10.7961 41.7182 11.1691C42.0826 11.5411 42.365 11.9911 42.5444 12.4891C42.7228 12.9851 42.7953 13.5161 42.7543 14.0441C42.7543 16.2481 39.9846 27.1881 39.9846 28.9871C39.9846 29.8421 40.1754 30.3461 40.9082 30.3461C41.7136 30.2057 42.4686 29.8422 43.0949 29.2931V30.7951C41.8313 32.0093 40.1909 32.7031 38.4772 32.7481ZM41.8746 0.999089C42.2544 0.987089 42.6322 1.05909 42.9823 1.21309C43.3315 1.36709 43.6454 1.59709 43.8992 1.88809C44.154 2.17687 44.3445 2.52128 44.457 2.89651C44.5695 3.27175 44.6012 3.66846 44.5499 4.05809C44.4562 4.88999 44.0759 5.6574 43.4804 6.21609C42.8798 6.77989 42.1064 7.09953 41.3003 7.11709C40.921 7.12968 40.5436 7.0567 40.1935 6.90309C39.8446 6.75031 39.5315 6.52002 39.2757 6.22809C39.0209 5.93931 38.8304 5.5949 38.7179 5.21967C38.6054 4.84443 38.5737 4.44772 38.625 4.05809C38.7188 3.22621 39.0991 2.45884 39.6946 1.90009C40.2953 1.33673 41.0687 1.01746 41.8746 1.00009V0.999089ZM52.6615 28.0341C52.4182 29.3921 52.5661 30.3371 53.4896 30.3371C54.298 30.2067 55.0554 29.8419 55.6764 29.2841L55.7632 30.7951C54.4949 32.0015 52.8574 32.694 51.1455 32.7481C48.1306 32.7481 46.9637 30.4901 47.4083 27.6831L50.3707 10.2751C51.3553 4.46309 51.0147 3.69809 47.9998 3.69809L48.1916 2.29509L57.2792 1.05309L52.6615 28.0331V28.0341ZM78.2175 27.9881C77.9733 29.3471 78.0687 30.3461 79.0447 30.3461C79.8548 30.1874 80.61 29.8053 81.2324 29.2391V30.7951C79.9722 32.0151 78.3298 32.7097 76.6147 32.7481C75.7471 32.814 74.887 32.5412 74.1999 31.9821C73.5182 31.4285 73.0609 30.6257 72.9195 29.7341C72.1882 30.7326 71.2495 31.5434 70.1746 32.1051C69.0943 32.6705 67.9063 32.9733 66.6989 32.9911C60.9219 32.9911 58.4909 27.7281 59.6062 21.4031C60.7216 15.0791 65.9223 9.91509 71.8042 9.91509C73.1947 9.88456 74.5702 10.2216 75.8037 10.8951L75.9516 10.0951C77.1022 3.90509 76.5708 3.69809 73.5559 3.69809L73.7038 2.29509L82.8343 1.05309L78.2166 27.9891L78.2175 27.9881ZM71.9521 12.1821C68.5975 12.1821 66.3678 16.2931 65.4872 21.3581C64.5637 26.6751 65.1476 30.3551 68.3017 30.3551C70.436 30.3551 72.867 27.6551 73.5988 23.5351L75.3944 13.1001C74.3562 12.4506 73.1602 12.1317 71.9521 12.1821ZM93.5696 32.9991C86.8167 32.9991 84.9696 27.9791 85.7977 23.1661L88.0016 10.2751C89.0215 4.45509 88.6819 3.65309 85.667 3.65309L85.8578 2.25009L94.9721 1.05309L93.125 11.9841C94.5503 10.708 96.349 9.98112 98.2227 9.92409C104.104 9.92409 106.866 15.0881 105.803 21.4121C104.74 27.7371 99.3294 33.0001 93.5696 33.0001V32.9991ZM96.7238 12.3081C95.7443 12.3282 94.7952 12.6687 94.0095 13.2821C93.2296 13.8907 92.6546 14.7434 92.3675 15.7171L91.0079 23.8141C90.1798 28.6271 91.8361 30.5881 93.9274 30.5881C96.9853 30.5881 98.8848 27.0801 99.9038 21.3131C100.81 16.1491 99.983 12.3351 96.7153 12.3351L96.7238 12.3081ZM115.013 24.3271C115.013 28.1871 116.807 30.2471 120.24 30.2471C121.983 30.2471 124.518 28.9971 126.122 27.3411L126.801 28.9421C125.646 30.2051 124.262 31.2141 122.73 31.9101C121.192 32.6089 119.538 32.9821 117.862 33.0081C112.765 33.0081 109.314 29.0951 109.314 23.7781C109.314 15.9061 115.631 9.93309 121.705 9.93309C125.399 9.93309 127.481 12.0381 127.481 14.4941C127.438 18.3081 123.935 22.5911 115.013 24.3271ZM121.277 12.2361C118.506 12.2361 115.841 16.4011 115.108 22.3661C120.693 20.9621 123.072 17.0491 123.124 14.5391C123.116 13.1361 122.479 12.2361 121.269 12.2361H121.277ZM147.304 32.7481C146.436 32.8139 145.576 32.5411 144.889 31.9821C144.207 31.4284 143.75 30.6256 143.609 29.7341C142.905 30.7322 141.988 31.5446 140.932 32.1071C139.871 32.6731 138.7 32.9753 137.51 32.9901C131.829 32.9901 129.398 27.7281 130.539 21.4031C131.68 15.0791 136.795 9.92309 142.694 9.92309C143.944 9.91646 145.183 10.1739 146.336 10.6801H151.877L148.906 27.9881C148.662 29.3471 148.758 30.3461 149.735 30.3461C150.544 30.1872 151.299 29.8051 151.921 29.2391V30.7951C150.661 32.015 149.019 32.7096 147.304 32.7481ZM142.834 12.1821C139.574 12.1821 137.292 16.2931 136.42 21.3581C135.497 26.6751 136.133 30.3551 139.035 30.3551C141.265 30.3551 143.652 27.5481 144.333 23.5351L146.127 13.1001C145.147 12.4506 144.001 12.1303 142.842 12.1821H142.834ZM168.877 15.8431C167.562 15.8431 167.221 14.7911 166.838 13.6841C166.708 13.1245 166.394 12.6306 165.952 12.2881C165.506 11.9427 164.961 11.7686 164.407 11.7951C163.688 11.7552 162.98 11.9952 162.42 12.4691C161.864 12.9382 161.497 13.6099 161.392 14.3501C161.245 15.7091 162.22 16.8601 164.067 18.5151L166.542 20.6201C167.461 21.3379 168.175 22.3064 168.606 23.4201C169.035 24.5301 169.162 25.7401 168.973 26.9181C168.345 30.6781 165.331 32.9901 161.296 32.9901C156.434 32.9901 153.332 30.0301 153.672 28.0241C153.751 27.4971 154.009 27.0141 154.4 26.6661C154.791 26.3161 155.29 26.1221 155.807 26.1171C157.07 26.1171 157.549 27.1161 157.942 28.4201C158.193 29.1701 158.677 29.8121 159.318 30.2481C159.962 30.6844 160.723 30.8891 161.488 30.8311C162.243 30.8686 162.985 30.613 163.572 30.1131C164.153 29.6174 164.535 28.9106 164.642 28.1331C164.834 26.3331 163.771 25.2271 161.776 23.3641L159.345 21.1601C158.49 20.4868 157.823 19.5869 157.41 18.5531C157 17.5244 156.862 16.3991 157.009 15.2951C157.445 12.8841 159.624 9.89709 164.633 9.89709C168.519 9.89709 170.95 12.1551 170.733 13.9631C170.709 14.4618 170.504 14.932 170.16 15.2781C169.817 15.6261 169.358 15.8281 168.877 15.8431ZM186.66 12.6951H181.946L179.664 26.0271C179.176 28.7891 179.568 30.0401 181.023 30.0401C181.798 30.0401 183.018 29.5901 184.761 27.7371L184.856 29.6891C184.065 30.6568 183.084 31.4344 181.98 31.9691C180.871 32.5068 179.665 32.7905 178.444 32.8011C175.142 32.8011 173.486 30.3911 174.271 25.9281L176.553 12.6951H172.867L173.155 10.6351H176.875L177.851 4.67009H183.289L182.269 10.6341H186.983L186.66 12.6941V12.6951Z" fill="#9C9C9C"/>
</svg>
