<svg width="32" height="32" viewBox="0 0 32 32" fill="none" xmlns="http://www.w3.org/2000/svg">
<path d="M31.3307 8.52134C31.1499 7.84037 30.7934 7.21885 30.2968 6.71902C29.8003 6.21919 29.1811 5.85859 28.5013 5.67334C26.0067 5 16 5 16 5C16 5 5.99333 5 3.49733 5.67334C2.81788 5.85892 2.19906 6.21965 1.70277 6.71944C1.20648 7.21924 0.850122 7.84059 0.669333 8.52134C0 11.0333 0 16.2733 0 16.2733C0 16.2733 0 21.5133 0.669333 24.0253C0.850115 24.7063 1.20663 25.3278 1.70319 25.8276C2.19974 26.3274 2.8189 26.688 3.49867 26.8733C5.99333 27.5466 16 27.5466 16 27.5466C16 27.5466 26.0067 27.5466 28.5027 26.8733C29.1825 26.6882 29.8017 26.3276 30.2983 25.8278C30.7949 25.3279 31.1513 24.7063 31.332 24.0253C32 21.5133 32 16.2733 32 16.2733C32 16.2733 32 11.0333 31.3307 8.52134ZM12.7267 21.0306V11.516L21.0907 16.2733L12.7267 21.0306Z" fill="#707070"/>
</svg>
