<svg width="20" height="28" viewBox="0 0 20 28" fill="none" xmlns="http://www.w3.org/2000/svg">
<path d="M9.99992 27.3332C9.39992 27.3332 8.87214 27.1887 8.41659 26.8998C7.96103 26.6109 7.66658 26.2109 7.53325 25.6998H7.06659C6.53325 25.6998 6.06659 25.4998 5.66659 25.0998C5.26659 24.6998 5.06659 24.2332 5.06659 23.6998V18.9332C3.59992 17.9776 2.44436 16.7554 1.59992 15.2665C0.755474 13.7776 0.333252 12.1332 0.333252 10.3332C0.333252 7.64428 1.27214 5.36095 3.14992 3.48317C5.0277 1.60539 7.31103 0.666504 9.99992 0.666504C12.6888 0.666504 14.9721 1.60539 16.8499 3.48317C18.7277 5.36095 19.6666 7.64428 19.6666 10.3332C19.6666 12.1332 19.2444 13.7776 18.3999 15.2665C17.5555 16.7554 16.3999 17.9776 14.9333 18.9332V23.6998C14.9333 24.2332 14.7333 24.6998 14.3333 25.0998C13.9333 25.4998 13.4666 25.6998 12.9333 25.6998H12.4666C12.3333 26.2109 12.0388 26.6109 11.5833 26.8998C11.1277 27.1887 10.5999 27.3332 9.99992 27.3332ZM7.06659 23.6998H12.9333V22.2332H7.06659V23.6998ZM7.06659 20.8998H12.9333V19.5665H7.06659V20.8998ZM6.76659 17.5665H9.23325V12.9998L6.16659 9.93317L7.19992 8.89984L9.99992 11.6998L12.7999 8.89984L13.8333 9.93317L10.7666 12.9998V17.5665H13.2333C14.5666 16.9443 15.6388 15.9776 16.4499 14.6665C17.261 13.3554 17.6666 11.9109 17.6666 10.3332C17.6666 8.17761 16.9277 6.36095 15.4499 4.88317C13.9721 3.40539 12.1555 2.6665 9.99992 2.6665C7.84436 2.6665 6.0277 3.40539 4.54992 4.88317C3.07214 6.36095 2.33325 8.17761 2.33325 10.3332C2.33325 11.9109 2.73881 13.3554 3.54992 14.6665C4.36103 15.9776 5.43325 16.9443 6.76659 17.5665Z" fill="url(#paint0_linear_305_302)"/>
<defs>
<linearGradient id="paint0_linear_305_302" x1="9.99992" y1="0.666504" x2="9.99992" y2="27.3332" gradientUnits="userSpaceOnUse">
<stop stop-color="#A5A58D"/>
<stop offset="1" stop-color="#6B705C"/>
</linearGradient>
</defs>
</svg>
