<svg width="19" height="29" viewBox="0 0 19 29" fill="none" xmlns="http://www.w3.org/2000/svg">
<path d="M3.39995 28.6667L7.43328 8C7.54439 7.46667 7.79995 7.05555 8.19995 6.76667C8.59995 6.47778 9.02217 6.33333 9.46662 6.33333C9.91106 6.33333 10.3277 6.43333 10.7166 6.63333C11.1055 6.83333 11.4222 7.12222 11.6666 7.5L12.9666 9.63333C13.3888 10.3444 13.9722 10.9778 14.7166 11.5333C15.4611 12.0889 16.3333 12.5222 17.3333 12.8333V10.3333H18.6666V28.6667H17.3333V14.8667C16.1999 14.6222 15.1333 14.1889 14.1333 13.5667C13.1333 12.9444 12.2444 12.1778 11.4666 11.2667L10.4999 16.1L13.3333 18.8V28.6667H11.3333V20.5333L7.99995 17.3667L5.53328 28.6667H3.39995ZM3.96661 15.2333L1.46661 14.7667C1.24439 14.7222 1.04995 14.5778 0.883281 14.3333C0.716615 14.0889 0.655504 13.8444 0.699948 13.6L1.69995 8.36667C1.81106 7.72222 2.13328 7.22778 2.66661 6.88333C3.19995 6.53889 3.78884 6.42222 4.43328 6.53333L5.63328 6.76667L3.96661 15.2333ZM11.6666 4.86667C10.9999 4.86667 10.4277 4.62778 9.94995 4.15C9.47217 3.67222 9.23328 3.1 9.23328 2.43333C9.23328 1.76667 9.47217 1.19444 9.94995 0.716667C10.4277 0.238889 10.9999 0 11.6666 0C12.3333 0 12.9055 0.238889 13.3833 0.716667C13.8611 1.19444 14.0999 1.76667 14.0999 2.43333C14.0999 3.1 13.8611 3.67222 13.3833 4.15C12.9055 4.62778 12.3333 4.86667 11.6666 4.86667Z" fill="url(#paint0_linear_305_310)"/>
<defs>
<linearGradient id="paint0_linear_305_310" x1="9.67626" y1="0" x2="9.67626" y2="28.6667" gradientUnits="userSpaceOnUse">
<stop stop-color="#A5A58D"/>
<stop offset="1" stop-color="#6B705C"/>
</linearGradient>
</defs>
</svg>
