<svg width="17" height="14" viewBox="0 0 17 14" fill="none" xmlns="http://www.w3.org/2000/svg">
<path d="M15 0H1.666C0.75 0 0.0079999 0.75 0.0079999 1.667L0 11.667C0 12.584 0.75 13.334 1.666 13.334H15C15.916 13.334 16.666 12.584 16.666 11.667V1.667C16.666 0.75 15.916 0 15 0ZM14.666 3.542L8.775 7.226C8.6421 7.30784 8.48908 7.35117 8.333 7.35117C8.17692 7.35117 8.02391 7.30784 7.891 7.226L2 3.542C1.9176 3.49451 1.84562 3.4309 1.78835 3.35498C1.73107 3.27905 1.68968 3.19237 1.66665 3.1001C1.64361 3.00782 1.6394 2.91186 1.65427 2.81792C1.66914 2.72399 1.70278 2.63401 1.75318 2.55336C1.80359 2.47272 1.86972 2.40305 1.94764 2.34852C2.02556 2.294 2.11367 2.25573 2.20671 2.236C2.29974 2.21627 2.3958 2.21549 2.48914 2.2337C2.58249 2.25192 2.6712 2.28875 2.75 2.342L8.333 5.834L13.916 2.342C13.9948 2.28875 14.0835 2.25192 14.1769 2.2337C14.2702 2.21549 14.3663 2.21627 14.4593 2.236C14.5523 2.25573 14.6404 2.294 14.7184 2.34852C14.7963 2.40305 14.8624 2.47272 14.9128 2.55336C14.9632 2.63401 14.9969 2.72399 15.0117 2.81792C15.0266 2.91186 15.0224 3.00782 14.9994 3.1001C14.9763 3.19237 14.9349 3.27905 14.8777 3.35498C14.8204 3.4309 14.7484 3.49451 14.666 3.542V3.542Z" fill="#A5A58D"/>
</svg>
