<svg width="17" height="17" viewBox="0 0 17 17" fill="none" xmlns="http://www.w3.org/2000/svg">
<path d="M8.333 0C3.75 0 0 3.75 0 8.333C0 12.916 3.75 16.666 8.333 16.666C12.916 16.666 16.666 12.916 16.666 8.333C16.666 3.75 12.916 0 8.333 0ZM11.291 11.5L7.891 9.408C7.76859 9.33488 7.66733 9.23115 7.59719 9.107C7.52705 8.98286 7.49045 8.84259 7.491 8.7V4.791C7.49538 4.62507 7.56386 4.46729 7.68207 4.35076C7.80028 4.23423 7.95902 4.16801 8.125 4.166C8.29036 4.16731 8.44857 4.23357 8.5655 4.3505C8.68243 4.46743 8.74869 4.62564 8.75 4.791V8.499L11.95 10.424C12.25 10.608 12.35 10.999 12.166 11.3C12.0755 11.4414 11.9331 11.5417 11.7694 11.5791C11.6058 11.6165 11.4339 11.5881 11.291 11.5V11.5Z" fill="url(#paint0_linear_628_103)"/>
<defs>
<linearGradient id="paint0_linear_628_103" x1="8.333" y1="0" x2="8.333" y2="16.666" gradientUnits="userSpaceOnUse">
<stop stop-color="#A5A58D"/>
<stop offset="1" stop-color="#6B705C"/>
</linearGradient>
</defs>
</svg>
