<svg width="24" height="24" viewBox="0 0 24 24" fill="none" xmlns="http://www.w3.org/2000/svg">
<path d="M5.5 22C5.08333 22 4.72917 21.8542 4.4375 21.5625C4.14583 21.2708 4 20.9167 4 20.5V7.75C4 6.83333 4.28333 6.0375 4.85 5.3625C5.41667 4.6875 6.13333 4.26667 7 4.1V2H9.5V4H14.5V2H17V4.1C17.8667 4.26667 18.5833 4.6875 19.15 5.3625C19.7167 6.0375 20 6.83333 20 7.75V20.5C20 20.9167 19.8542 21.2708 19.5625 21.5625C19.2708 21.8542 18.9167 22 18.5 22H5.5ZM5.5 20.5H18.5V7.75C18.5 7.11667 18.2833 6.58333 17.85 6.15C17.4167 5.71667 16.8833 5.5 16.25 5.5H7.75C7.13333 5.5 6.60417 5.71667 6.1625 6.15C5.72083 6.58333 5.5 7.11667 5.5 7.75V20.5ZM15.5 15.75H17V12.25H7V13.75H15.5V15.75Z" fill="#A5A58D"/>
</svg>
