<svg width="24" height="24" viewBox="0 0 24 24" fill="none" xmlns="http://www.w3.org/2000/svg">
<path d="M13.7501 21.9L12.7001 20.85L16.2501 17.3L6.7001 7.74998L3.1501 11.3L2.1001 10.25L3.5001 8.79997L2.1001 7.39998L4.2251 5.27498L3.1751 4.22498L4.2251 3.17498L5.3001 4.19998L7.4001 2.09998L8.8001 3.49998L10.2501 2.09998L11.3001 3.14998L7.7501 6.69998L17.3001 16.25L20.8501 12.7L21.9001 13.75L20.5001 15.2L21.9001 16.6L19.7501 18.75L20.8001 19.8L19.7501 20.85L18.7001 19.8L16.6001 21.9L15.2001 20.5L13.7501 21.9Z" fill="#A5A58D"/>
</svg>
