<svg width="28" height="24" viewBox="0 0 28 24" fill="none" xmlns="http://www.w3.org/2000/svg">
<path d="M20.6667 18.6532C18.8667 18.6532 17.7334 19.2132 16.7334 19.7199C15.8667 20.1599 15.1601 20.5199 14.0001 20.5199C12.8001 20.5199 12.1334 20.1866 11.2667 19.7199C10.2667 19.2132 9.17341 18.6532 7.33341 18.6532C5.49341 18.6532 4.40008 19.2132 3.40008 19.7199C2.82675 20.0132 2.32008 20.2665 1.70675 20.4132C1.10675 20.5465 0.666748 21.0265 0.666748 21.6265V21.7599C0.666748 22.5599 1.41341 23.1332 2.18675 22.9732C3.17341 22.7732 3.92008 22.3999 4.60008 22.0532C5.46675 21.6132 6.16008 21.2532 7.33341 21.2532C8.50675 21.2532 9.20008 21.5865 10.0667 22.0532C11.0667 22.5599 12.1601 23.1199 14.0001 23.1199C15.8401 23.1199 16.9334 22.5599 17.9334 22.0532C18.8001 21.6132 19.5067 21.2532 20.6667 21.2532C21.8667 21.2532 22.5334 21.5865 23.4001 22.0532C24.0934 22.3999 24.8401 22.7865 25.8401 22.9865C26.0202 23.0217 26.2059 23.0169 26.3839 22.9724C26.562 22.9279 26.7281 22.8449 26.8705 22.7292C27.013 22.6134 27.1283 22.4678 27.2082 22.3026C27.2882 22.1375 27.331 21.9567 27.3334 21.7732V21.6532C27.3334 21.0399 26.8801 20.5599 26.2801 20.4265C25.6667 20.2932 25.1734 20.0399 24.6001 19.7332C23.6001 19.2132 22.4667 18.6532 20.6667 18.6532ZM20.6667 12.7199C18.8667 12.7199 17.7334 13.2932 16.7334 13.7865C15.8667 14.2132 15.1601 14.5865 14.0001 14.5865C12.8001 14.5865 12.1334 14.2532 11.2667 13.7865C10.2667 13.2799 9.17341 12.7199 7.33341 12.7199C5.49341 12.7199 4.40008 13.2932 3.40008 13.7865C2.82675 14.0665 2.32008 14.3332 1.69341 14.4799C1.10675 14.6132 0.666748 15.0932 0.666748 15.6932V15.8265C0.666824 16.0108 0.707978 16.1928 0.787216 16.3592C0.866453 16.5256 0.981782 16.6722 1.12481 16.7884C1.26784 16.9046 1.43498 16.9875 1.61406 17.031C1.79315 17.0745 1.97968 17.0775 2.16008 17.0399C3.16008 16.8399 3.90675 16.4532 4.60008 16.1199C5.46675 15.6532 6.13341 15.3199 7.33341 15.3199C8.53341 15.3199 9.20008 15.6532 10.0667 16.1199C11.0667 16.6265 12.1601 17.1865 14.0001 17.1865C15.8401 17.1865 16.9334 16.6132 17.9334 16.1199C18.8001 15.6532 19.4667 15.3199 20.6667 15.3199C21.8667 15.3199 22.5334 15.6532 23.4001 16.1199C24.0934 16.4665 24.8401 16.8532 25.8401 17.0532C26.0213 17.0886 26.2081 17.0835 26.3871 17.0382C26.5661 16.993 26.7329 16.9088 26.8756 16.7916C27.0183 16.6744 27.1333 16.5271 27.2125 16.3603C27.2916 16.1934 27.3329 16.0112 27.3334 15.8265V15.7065C27.3334 15.0932 26.8801 14.6132 26.2801 14.4799C25.6667 14.3465 25.1734 14.0932 24.6001 13.7865C23.6001 13.2799 22.4667 12.7199 20.6667 12.7199ZM24.6001 1.94655C23.6001 1.43988 22.4934 0.879883 20.6667 0.879883C18.8401 0.879883 17.7334 1.43988 16.7334 1.94655C15.8667 2.37322 15.1601 2.74655 14.0001 2.74655C12.8001 2.74655 12.1334 2.41322 11.2667 1.94655C10.2667 1.45322 9.17341 0.879883 7.33341 0.879883C5.49341 0.879883 4.40008 1.43988 3.40008 1.94655C2.82675 2.23988 2.32008 2.49322 1.70675 2.63988C1.10675 2.77322 0.666748 3.25322 0.666748 3.85322V3.94655C0.666748 4.74655 1.38675 5.33322 2.16008 5.17322C3.16008 4.97322 3.90675 4.58655 4.60008 4.25322C5.46675 3.81322 6.16008 3.45322 7.33341 3.45322C8.50675 3.45322 9.20008 3.78655 10.0667 4.25322C11.0667 4.75988 12.1601 5.31988 14.0001 5.31988C15.8401 5.31988 16.9334 4.74655 17.9334 4.25322C18.8001 3.82655 19.5067 3.45322 20.6667 3.45322C21.8667 3.45322 22.5334 3.78655 23.4001 4.25322C24.0934 4.59988 24.8401 4.98655 25.8401 5.18655C26.0213 5.22191 26.2081 5.21679 26.3871 5.17155C26.5661 5.12632 26.7329 5.04209 26.8756 4.92489C27.0183 4.80769 27.1333 4.66042 27.2125 4.49359C27.2916 4.32677 27.3329 4.14452 27.3334 3.95988V3.83988C27.3334 3.22655 26.8801 2.74655 26.2801 2.61322C25.6667 2.47988 25.1734 2.23988 24.6001 1.94655ZM20.6667 6.78655C18.8667 6.78655 17.7334 7.35988 16.7334 7.85322C15.8667 8.31988 15.2001 8.65322 14.0001 8.65322C12.8001 8.65322 12.1334 8.31988 11.2667 7.85322C10.2667 7.34655 9.17341 6.78655 7.33341 6.78655C5.49341 6.78655 4.40008 7.35988 3.40008 7.85322C2.82675 8.15988 2.33341 8.41322 1.72008 8.54655C1.12008 8.67988 0.666748 9.15988 0.666748 9.77322V9.89322C0.666824 10.0775 0.707978 10.2595 0.787216 10.4259C0.866453 10.5922 0.981782 10.7389 1.12481 10.8551C1.26784 10.9713 1.43498 11.0542 1.61406 11.0977C1.79315 11.1412 1.97968 11.1442 2.16008 11.1065C3.16008 10.9065 3.90675 10.5199 4.60008 10.1865C5.46675 9.75988 6.17341 9.38655 7.33341 9.38655C8.49341 9.38655 9.20008 9.71988 10.0667 10.1865C11.0667 10.6932 12.1601 11.2532 14.0001 11.2532C15.8401 11.2532 16.9334 10.6799 17.9334 10.1865C18.8001 9.75988 19.5067 9.38655 20.6667 9.38655C21.8667 9.38655 22.5334 9.71988 23.4001 10.1865C24.0934 10.5332 24.8401 10.9199 25.8401 11.1199C26.0202 11.155 26.2059 11.1502 26.3839 11.1057C26.562 11.0613 26.7281 10.9782 26.8705 10.8625C27.013 10.7468 27.1283 10.6012 27.2082 10.436C27.2882 10.2708 27.331 10.0901 27.3334 9.90655V9.78655C27.3334 9.17322 26.8801 8.69322 26.2801 8.55988C25.6667 8.42655 25.1734 8.17322 24.6001 7.86655C23.6001 7.34655 22.4667 6.78655 20.6667 6.78655Z" fill="url(#paint0_linear_305_281)"/>
<defs>
<linearGradient id="paint0_linear_305_281" x1="14.0001" y1="0.879883" x2="14.0001" y2="23.1199" gradientUnits="userSpaceOnUse">
<stop stop-color="#A5A58D"/>
<stop offset="1" stop-color="#6B705C"/>
</linearGradient>
</defs>
</svg>
