<svg width="29" height="29" viewBox="0 0 29 29" fill="none" xmlns="http://www.w3.org/2000/svg">
<path d="M11.2666 10.2665L14.2333 5.3665L12.2666 2.09984C11.9999 1.65539 11.6166 1.43317 11.1166 1.43317C10.6166 1.43317 10.2333 1.65539 9.96659 2.09984L6.69992 7.53317L11.2666 10.2665ZM24.1666 19.3332L21.1999 14.3998L25.8333 11.7332L27.9666 15.2998C28.211 15.6776 28.3444 16.0998 28.3666 16.5665C28.3888 17.0332 28.2888 17.4665 28.0666 17.8665C27.8444 18.3109 27.5166 18.6665 27.0833 18.9332C26.6499 19.1998 26.1777 19.3332 25.6666 19.3332H24.1666ZM20.3333 28.6665L14.9999 23.3332L20.3333 17.9998V20.6665H26.6666L24.7332 24.5332C24.4888 24.9776 24.1555 25.3332 23.7332 25.5998C23.311 25.8665 22.8444 25.9998 22.3333 25.9998H20.3333V28.6665ZM7.43325 25.9998C6.98881 25.9998 6.58325 25.8832 6.21658 25.6498C5.84992 25.4165 5.5777 25.1109 5.39992 24.7332C5.22214 24.3776 5.13881 24.0054 5.14992 23.6165C5.16103 23.2276 5.26658 22.8665 5.46658 22.5332L6.59992 20.6665H12.3333V25.9998H7.43325ZM4.13325 22.1998L1.96659 17.8665C1.76659 17.4665 1.67214 17.0387 1.68325 16.5832C1.69436 16.1276 1.82214 15.6998 2.06659 15.2998L2.59992 14.3998L0.333252 13.0332L7.63325 11.1998L9.46658 18.5332L7.16658 17.1332L4.13325 22.1998ZM22.1333 10.7998L14.8333 8.96651L17.1333 7.59984L12.9666 0.666504H17.6666C18.1333 0.666504 18.5721 0.783171 18.9833 1.0165C19.3944 1.24984 19.7221 1.5665 19.9666 1.9665L21.6999 4.8665L23.9666 3.4665L22.1333 10.7998Z" fill="url(#paint0_linear_305_308)"/>
<defs>
<linearGradient id="paint0_linear_305_308" x1="14.3514" y1="0.666504" x2="14.3514" y2="28.6665" gradientUnits="userSpaceOnUse">
<stop stop-color="#A5A58D"/>
<stop offset="1" stop-color="#6B705C"/>
</linearGradient>
</defs>
</svg>
