<svg width="28" height="28" viewBox="0 0 28 28" fill="none" xmlns="http://www.w3.org/2000/svg">
<path d="M13.0334 23.5665H14.8667V21.8332C16.2223 21.6776 17.2779 21.2609 18.0334 20.5832C18.789 19.9054 19.1667 18.9998 19.1667 17.8665C19.1667 16.7332 18.8445 15.8109 18.2001 15.0998C17.5556 14.3887 16.4667 13.7109 14.9334 13.0665C13.6445 12.5332 12.7112 12.0554 12.1334 11.6332C11.5556 11.2109 11.2667 10.6443 11.2667 9.93317C11.2667 9.24428 11.5167 8.69984 12.0167 8.29984C12.5167 7.89984 13.2001 7.69984 14.0667 7.69984C14.7334 7.69984 15.3112 7.85539 15.8001 8.1665C16.289 8.47761 16.7001 8.94428 17.0334 9.5665L18.6334 8.79984C18.2556 8.02206 17.7556 7.41095 17.1334 6.9665C16.5112 6.52206 15.7779 6.25539 14.9334 6.1665V4.4665H13.1001V6.1665C11.9667 6.32206 11.0723 6.73873 10.4167 7.4165C9.76119 8.09428 9.43341 8.93317 9.43341 9.93317C9.43341 11.0221 9.76675 11.8887 10.4334 12.5332C11.1001 13.1776 12.1001 13.7776 13.4334 14.3332C14.9223 14.9554 15.9445 15.5165 16.5001 16.0165C17.0556 16.5165 17.3334 17.1332 17.3334 17.8665C17.3334 18.5776 17.039 19.1498 16.4501 19.5832C15.8612 20.0165 15.1223 20.2332 14.2334 20.2332C13.3667 20.2332 12.5945 19.9887 11.9167 19.4998C11.239 19.0109 10.7667 18.3443 10.5001 17.4998L8.80008 18.0665C9.26675 19.0887 9.83897 19.8943 10.5167 20.4832C11.1945 21.0721 12.0334 21.4998 13.0334 21.7665V23.5665ZM14.0001 27.3332C12.1779 27.3332 10.4556 26.9832 8.83341 26.2832C7.21119 25.5832 5.79453 24.6276 4.58341 23.4165C3.3723 22.2054 2.41675 20.7887 1.71675 19.1665C1.01675 17.5443 0.666748 15.8221 0.666748 13.9998C0.666748 12.1554 1.01675 10.4221 1.71675 8.79984C2.41675 7.17762 3.3723 5.7665 4.58341 4.5665C5.79453 3.3665 7.21119 2.4165 8.83341 1.7165C10.4556 1.0165 12.1779 0.666504 14.0001 0.666504C15.8445 0.666504 17.5779 1.0165 19.2001 1.7165C20.8223 2.4165 22.2334 3.3665 23.4334 4.5665C24.6334 5.7665 25.5834 7.17762 26.2834 8.79984C26.9834 10.4221 27.3334 12.1554 27.3334 13.9998C27.3334 15.8221 26.9834 17.5443 26.2834 19.1665C25.5834 20.7887 24.6334 22.2054 23.4334 23.4165C22.2334 24.6276 20.8223 25.5832 19.2001 26.2832C17.5779 26.9832 15.8445 27.3332 14.0001 27.3332ZM14.0001 25.3332C17.1556 25.3332 19.8334 24.2276 22.0334 22.0165C24.2334 19.8054 25.3334 17.1332 25.3334 13.9998C25.3334 10.8443 24.2334 8.1665 22.0334 5.9665C19.8334 3.7665 17.1556 2.6665 14.0001 2.6665C10.8667 2.6665 8.19453 3.7665 5.98341 5.9665C3.7723 8.1665 2.66675 10.8443 2.66675 13.9998C2.66675 17.1332 3.7723 19.8054 5.98341 22.0165C8.19453 24.2276 10.8667 25.3332 14.0001 25.3332Z" fill="url(#paint0_linear_305_304)"/>
<defs>
<linearGradient id="paint0_linear_305_304" x1="14.0001" y1="0.666504" x2="14.0001" y2="27.3332" gradientUnits="userSpaceOnUse">
<stop stop-color="#A5A58D"/>
<stop offset="1" stop-color="#6B705C"/>
</linearGradient>
</defs>
</svg>
