<svg width="15" height="15" viewBox="0 0 15 15" fill="none" xmlns="http://www.w3.org/2000/svg">
<path d="M13.503 10.209L11.386 9.967C11.1372 9.93785 10.8851 9.96544 10.6485 10.0477C10.4119 10.13 10.197 10.2648 10.02 10.442L8.48603 11.975C6.12072 10.7719 4.19815 8.84931 2.99503 6.484L4.53603 4.942C4.89503 4.584 5.07003 4.084 5.01103 3.575L4.77003 1.475C4.72266 1.06841 4.52744 0.693431 4.22153 0.421446C3.91562 0.14946 3.52037 -0.000539232 3.11103 1.45664e-06H1.67003C0.728028 1.45664e-06 -0.0549714 0.784001 0.00302857 1.725C0.445029 8.842 6.13603 14.525 13.245 14.967C14.186 15.025 14.97 14.242 14.97 13.3V11.859C14.9721 11.4515 14.8234 11.0575 14.5526 10.7529C14.2818 10.4484 13.908 10.2546 13.503 10.209V10.209Z" fill="#A5A58D"/>
</svg>
