<svg width="22" height="22" viewBox="0 0 22 22" fill="none" xmlns="http://www.w3.org/2000/svg">
<path d="M3.06688 5.73346C1.32126 7.47937 0.338391 9.84573 0.333393 12.3146C0.328395 14.7835 1.30168 17.1538 3.04022 18.9068C5.00022 14.3735 8.49355 10.5868 12.8536 8.33346C9.09031 11.5177 6.54998 15.9102 5.66688 20.7601C9.13355 22.4001 13.4002 21.8001 16.2669 18.9335C20.2536 14.9468 21.3736 4.08012 21.6136 1.09346C21.6219 0.998556 21.6094 0.902978 21.5768 0.813447C21.5442 0.723916 21.4925 0.642608 21.4251 0.575244C21.3577 0.50788 21.2764 0.456096 21.1869 0.423537C21.0974 0.390978 21.0018 0.378435 20.9069 0.386789C17.9202 0.62679 7.05355 1.74679 3.06688 5.73346Z" fill="url(#paint0_linear_305_306)"/>
<defs>
<linearGradient id="paint0_linear_305_306" x1="10.9747" y1="0.384277" x2="10.9747" y2="21.6594" gradientUnits="userSpaceOnUse">
<stop stop-color="#A5A58D"/>
<stop offset="1" stop-color="#6B705C"/>
</linearGradient>
</defs>
</svg>
