<svg width="223" height="51" viewBox="0 0 223 51" fill="none" xmlns="http://www.w3.org/2000/svg">
<path d="M0 0.708333H21.25V7.79167H7.79167V20.8958H18.4875V27.9792H7.79167V43.2083H21.25V50.2917H0V0.708333Z" fill="black"/>
<path d="M37.7741 51C34.0435 51 31.1866 49.9375 29.2033 47.8125C27.2671 45.6875 26.2991 42.6889 26.2991 38.8167V12.1833C26.2991 8.31111 27.2671 5.3125 29.2033 3.1875C31.1866 1.0625 34.0435 0 37.7741 0C41.5046 0 44.338 1.0625 46.2741 3.1875C48.2574 5.3125 49.2491 8.31111 49.2491 12.1833V17.425H41.8824V11.6875C41.8824 8.61806 40.5838 7.08333 37.9866 7.08333C35.3894 7.08333 34.0908 8.61806 34.0908 11.6875V39.3833C34.0908 42.4056 35.3894 43.9167 37.9866 43.9167C40.5838 43.9167 41.8824 42.4056 41.8824 39.3833V31.8042H49.2491V38.8167C49.2491 42.6889 48.2574 45.6875 46.2741 47.8125C44.338 49.9375 41.5046 51 37.7741 51Z" fill="black"/>
<path d="M66.3742 51C62.5492 51 59.6214 49.9139 57.5908 47.7417C55.5603 45.5694 54.545 42.5 54.545 38.5333V12.4667C54.545 8.5 55.5603 5.43056 57.5908 3.25833C59.6214 1.08611 62.5492 0 66.3742 0C70.1992 0 73.1269 1.08611 75.1575 3.25833C77.188 5.43056 78.2033 8.5 78.2033 12.4667V38.5333C78.2033 42.5 77.188 45.5694 75.1575 47.7417C73.1269 49.9139 70.1992 51 66.3742 51ZM66.3742 43.9167C69.0658 43.9167 70.4117 42.2875 70.4117 39.0292V11.9708C70.4117 8.7125 69.0658 7.08333 66.3742 7.08333C63.6825 7.08333 62.3367 8.7125 62.3367 11.9708V39.0292C62.3367 42.2875 63.6825 43.9167 66.3742 43.9167Z" fill="black"/>
<path d="M101.818 0.708333H108.548L88.9977 50.2917H82.2685L101.818 0.708333Z" fill="#6B705C"/>
<path d="M113.129 0.708333H124.604C128.476 0.708333 131.38 1.74722 133.316 3.825C135.252 5.90278 136.22 8.94861 136.22 12.9625V17.85C136.22 21.8639 135.252 24.9097 133.316 26.9875C131.38 29.0653 128.476 30.1042 124.604 30.1042H120.92V50.2917H113.129V0.708333ZM124.604 23.0208C125.879 23.0208 126.823 22.6667 127.437 21.9583C128.098 21.25 128.429 20.0458 128.429 18.3458V12.4667C128.429 10.7667 128.098 9.5625 127.437 8.85417C126.823 8.14583 125.879 7.79167 124.604 7.79167H120.92V23.0208H124.604Z" fill="black"/>
<path d="M145.045 0.708333H155.599L163.674 50.2917H155.883L154.466 40.4458V40.5875H145.612L144.195 50.2917H136.97L145.045 0.708333ZM153.545 33.8583L150.074 9.35H149.933L146.533 33.8583H153.545Z" fill="black"/>
<path d="M179.358 51C175.627 51 172.77 49.9375 170.787 47.8125C168.851 45.6875 167.883 42.6889 167.883 38.8167V12.1833C167.883 8.31111 168.851 5.3125 170.787 3.1875C172.77 1.0625 175.627 0 179.358 0C183.088 0 185.922 1.0625 187.858 3.1875C189.841 5.3125 190.833 8.31111 190.833 12.1833V17.425H183.466V11.6875C183.466 8.61806 182.167 7.08333 179.57 7.08333C176.973 7.08333 175.674 8.61806 175.674 11.6875V39.3833C175.674 42.4056 176.973 43.9167 179.57 43.9167C182.167 43.9167 183.466 42.4056 183.466 39.3833V31.8042H190.833V38.8167C190.833 42.6889 189.841 45.6875 187.858 47.8125C185.922 49.9375 183.088 51 179.358 51Z" fill="black"/>
<path d="M196.557 0.708333H204.349V21.6042L214.265 0.708333H222.057L212.778 18.9125L222.199 50.2917H214.053L207.465 28.1917L204.349 34.4958V50.2917H196.557V0.708333Z" fill="black"/>
</svg>
